<svg width="107" height="38" viewBox="0 0 107 38" fill="none" xmlns="http://www.w3.org/2000/svg">
<path d="M13.0507 0.00134277H4.76953C4.20275 0.00134277 3.72085 0.544012 3.63243 1.28144L0.28311 29.2643C0.216495 29.8163 0.541084 30.3142 0.96604 30.3142H4.91963C5.48631 30.3142 5.9682 29.7718 6.05663 29.033L6.95993 21.4856C7.04717 20.7467 7.53025 20.2041 8.09575 20.2041H10.7173C16.1724 20.2041 19.3207 16.7256 20.143 9.83236C20.5134 6.81653 20.1586 4.44705 19.087 2.78759C17.91 0.96516 15.8224 0.00134277 13.0507 0.00134277ZM14.0062 10.2217C13.5533 14.1375 11.2828 14.1375 9.08748 14.1375H7.83787L8.71453 6.82462C8.76665 6.38257 9.05719 6.05707 9.39629 6.05707H9.96898C11.4644 6.05707 12.8752 6.05707 13.6041 7.18029C14.0388 7.85056 14.1721 8.8462 14.0062 10.2217Z" fill="#283B82"/>
<path d="M37.8043 10.0956H33.8388C33.501 10.0956 33.2092 10.4211 33.1569 10.8631L32.9816 12.3247L32.7042 11.7949C31.8457 10.1529 29.9312 9.60413 28.0204 9.60413C23.6383 9.60413 19.8954 13.9778 19.1665 20.1131C18.7875 23.1735 19.3263 26.1 20.6438 28.1407C21.8522 30.0172 23.5813 30.7991 25.6387 30.7991C29.1697 30.7991 31.1277 27.8074 31.1277 27.8074L30.9508 29.2594C30.8841 29.8147 31.2088 30.3125 31.6315 30.3125H35.2034C35.7713 30.3125 36.2508 29.77 36.3405 29.0313L38.4837 11.1455C38.5516 10.5949 38.2283 10.0956 37.8043 10.0956ZM32.2767 20.2663C31.8942 23.2517 30.0959 25.256 27.8026 25.256C26.6511 25.256 25.7307 24.7692 25.1397 23.8469C24.5537 22.931 24.3309 21.6274 24.5174 20.1752C24.8746 17.2153 26.7031 15.1459 28.9613 15.1459C30.0876 15.1459 31.0029 15.6389 31.6059 16.569C32.2103 17.5089 32.4498 18.8205 32.2767 20.2663Z" fill="#283B82"/>
<path d="M58.9256 10.0956H54.9406C54.5604 10.0956 54.2032 10.3445 53.9876 10.7611L48.4914 21.4296L46.1617 11.1775C46.0152 10.5359 45.566 10.0956 45.0574 10.0956H41.1414C40.6654 10.0956 40.335 10.7083 40.4863 11.2987L44.8757 28.2733L40.749 35.9501C40.4244 36.5547 40.7513 37.3864 41.3122 37.3864H45.2924C45.6701 37.3864 46.0238 37.1437 46.238 36.7352L59.4923 11.5238C59.8096 10.9205 59.4839 10.0956 58.9256 10.0956Z" fill="#283B82"/>
<path d="M72.1191 0.00134277H63.8366C63.2712 0.00134277 62.7892 0.544012 62.7007 1.28144L59.3514 29.2643C59.285 29.8163 59.6094 30.3142 60.0321 30.3142H64.2823C64.6769 30.3142 65.015 29.9346 65.0766 29.4175L66.0271 21.4856C66.1142 20.7467 66.5975 20.2041 67.1629 20.2041H69.7834C75.2395 20.2041 78.3867 16.7256 79.21 9.83236C79.5819 6.81653 79.2247 4.44705 78.153 2.78759C76.9772 0.96516 74.8908 0.00134277 72.1191 0.00134277ZM73.0746 10.2217C72.6228 14.1375 70.3526 14.1375 68.1558 14.1375H66.9075L67.7855 6.82462C67.8375 6.38257 68.1255 6.05707 68.4658 6.05707H69.0386C70.533 6.05707 71.9447 6.05707 72.6736 7.18029C73.1084 7.85056 73.2403 8.8462 73.0746 10.2217Z" fill="#469BDB"/>
<path d="M96.8726 10.0956H92.9094C92.5691 10.0956 92.2795 10.4211 92.2288 10.8631L92.0532 12.3247L91.7748 11.7949C90.9163 10.1529 89.003 9.60413 87.0923 9.60413C82.7099 9.60413 78.9685 13.9778 78.2393 20.1131C77.8616 23.1735 78.398 26.1 79.7155 28.1407C80.9265 30.0172 82.653 30.7991 84.7103 30.7991C88.2413 30.7991 90.1993 27.8074 90.1993 27.8074L90.0224 29.2594C89.956 29.8147 90.2804 30.3125 90.7056 30.3125H94.2764C94.8419 30.3125 95.3239 29.77 95.4123 29.0313L97.5568 11.1455C97.622 10.5949 97.2976 10.0956 96.8726 10.0956ZM91.3448 20.2663C90.9645 23.2517 89.1639 25.256 86.8707 25.256C85.7214 25.256 84.7987 24.7692 84.2078 23.8469C83.6219 22.931 83.4014 21.6274 83.5856 20.1752C83.9451 17.2153 85.7712 15.1459 88.0296 15.1459C89.1556 15.1459 90.0709 15.6389 90.674 16.569C91.2806 17.5089 91.5203 18.8205 91.3448 20.2663Z" fill="#469BDB"/>
<path d="M101.547 0.769054L98.1483 29.2643C98.0819 29.8163 98.4063 30.3142 98.8289 30.3142H102.246C102.814 30.3142 103.296 29.7718 103.383 29.033L106.735 1.05171C106.801 0.499386 106.477 0 106.054 0H102.228C101.89 0.00133324 101.599 0.327265 101.547 0.769054Z" fill="#469BDB"/>
</svg>
