<svg width="25" height="25" viewBox="0 0 25 25" fill="none" xmlns="http://www.w3.org/2000/svg">
<g clip-path="url(#clip0_6_43)">
<path d="M11.5105 0.521484C5.68286 0.521484 0.941406 5.26633 0.941406 11.0981C0.941406 16.9303 5.68286 21.6748 11.5105 21.6748C17.3385 21.6748 22.0796 16.9303 22.0796 11.0981C22.0796 5.26633 17.3385 0.521484 11.5105 0.521484ZM11.5105 19.7222C6.75864 19.7222 2.89262 15.8534 2.89262 11.0982C2.89262 6.34293 6.75864 2.4741 11.5105 2.4741C16.2624 2.4741 20.1284 6.34288 20.1284 11.0981C20.1284 15.8534 16.2624 19.7222 11.5105 19.7222Z" fill="#244D4D"/>
<path d="M24.6554 22.8721L19.0619 17.2746C18.6807 16.8932 18.0635 16.8932 17.6823 17.2746C17.3012 17.6557 17.3012 18.274 17.6823 18.6551L23.2759 24.2526C23.4664 24.4433 23.7159 24.5387 23.9656 24.5387C24.215 24.5387 24.4648 24.4433 24.6554 24.2526C25.0365 23.8715 25.0365 23.2532 24.6554 22.8721Z" fill="#244D4D"/>
</g>
<defs>
<clipPath id="clip0_6_43">
<rect width="24" height="24.0333" fill="white" transform="translate(0.941406 0.503662)"/>
</clipPath>
</defs>
</svg>
