<svg width="112" height="48" viewBox="0 0 112 48" fill="none" xmlns="http://www.w3.org/2000/svg">
<g clip-path="url(#clip0_24_4)">
<path d="M8.55731 19.0469C8.55731 17.8423 9.54576 17.3789 11.1832 17.3789C13.5306 17.3789 16.496 18.0895 18.8437 19.356V12.0967C16.2799 11.0774 13.747 10.6758 11.1832 10.6758C4.91234 10.6758 0.742188 13.9502 0.742188 19.4179C0.742188 27.9432 12.4803 26.5842 12.4803 30.2603C12.4803 31.6809 11.2449 32.1444 9.51492 32.1444C6.95115 32.1444 3.67671 31.0941 1.08188 29.6732V37.025C3.95472 38.2607 6.85841 38.7856 9.51492 38.7856C15.94 38.7856 20.3573 35.6041 20.3573 30.0748C20.3265 20.8696 8.55731 22.5066 8.55731 19.0469ZM29.4389 4.49787L21.9018 6.10403L21.8709 30.8469C21.8709 35.4189 25.2998 38.7856 29.8715 38.7856C32.4045 38.7856 34.2578 38.3223 35.2771 37.7663V31.4957C34.2889 31.8973 29.4081 33.3182 29.4081 28.7464V17.7804H35.2771V11.2009H29.4081L29.4389 4.49787ZM44.8841 13.4867L44.3897 11.2009H37.7175V38.2296H45.4401V19.912C47.2624 17.5335 50.3515 17.9659 51.3092 18.3056V11.2009C50.3207 10.8302 46.7066 10.1506 44.8841 13.4867ZM53.1933 11.2009H60.9468V38.2296H53.1933V11.2009ZM53.1933 8.85329L60.9468 7.18523V0.914581L53.1933 2.5518V8.85307V8.85329ZM77.0713 10.6758C74.0441 10.6758 72.098 12.0967 71.017 13.0853L70.6152 11.1701H63.8196V47.1876L71.542 45.5506L71.573 36.8087C72.6851 37.6119 74.3221 38.7548 77.0405 38.7548C82.5698 38.7548 87.6049 34.3066 87.6049 24.5146C87.574 15.5564 82.4771 10.6758 77.0713 10.6758ZM75.218 31.959C73.3955 31.959 72.3141 31.3104 71.573 30.5072L71.542 19.0469C72.3452 18.1512 73.4572 17.5335 75.218 17.5335C78.029 17.5335 79.975 20.6841 79.975 24.7307C79.975 28.87 78.0598 31.959 75.218 31.959ZM111.946 24.8234C111.946 16.9156 108.116 10.6758 100.795 10.6758C93.4429 10.6758 88.9947 16.9158 88.9947 24.7618C88.9947 34.0594 94.2463 38.7548 101.783 38.7548C105.459 38.7548 108.239 37.9207 110.34 36.747V30.5689C108.24 31.6193 105.83 32.268 102.772 32.268C99.7754 32.268 97.1189 31.2177 96.7792 27.5727H111.884C111.884 27.1709 111.946 25.5647 111.946 24.8234ZM96.6865 21.8889C96.6865 18.3984 98.818 16.9464 100.764 16.9464C102.648 16.9464 104.656 18.3984 104.656 21.8889H96.6865Z" fill="#154444" fill-opacity="0.86"/>
</g>
<defs>
<clipPath id="clip0_24_4">
<rect width="111.204" height="46.4833" fill="white" transform="translate(0.742188 0.912781)"/>
</clipPath>
</defs>
</svg>
