<svg width="99" height="34" viewBox="0 0 99 34" fill="none" xmlns="http://www.w3.org/2000/svg">
<g clip-path="url(#clip0_27_7)">
<path d="M6.57441 24.2824C6.98558 25.3807 7.55483 26.3199 8.28228 27.0998C9.00972 27.8798 9.87153 28.4767 10.8677 28.8905C11.864 29.3044 12.9472 29.5113 14.1174 29.5113C15.256 29.5113 16.3233 29.2964 17.3196 28.8666C18.3159 28.4367 19.1855 27.8319 19.9287 27.052C20.6719 26.272 21.2491 25.3409 21.6603 24.2585C22.0715 23.1761 22.277 21.9664 22.277 20.6293V0H27.2582V33.427H22.3245V30.323C21.2175 31.5009 19.9129 32.4082 18.4106 33.045C16.9083 33.6816 15.2876 34 13.5481 34C11.7769 34 10.1245 33.6896 8.59058 33.0688C7.05675 32.448 5.72835 31.5647 4.6057 30.4185C3.48304 29.2724 2.59741 27.8957 1.94911 26.288C1.30071 24.6803 0.976562 22.8896 0.976562 20.9157V0H5.95771V20.6293C5.95771 21.9664 6.16324 23.184 6.57441 24.2824Z" fill="#154444"/>
<path d="M35.8441 0V12.1769C36.951 11.0627 38.232 10.1794 39.6867 9.5267C41.1415 8.87402 42.7229 8.54773 44.4307 8.54773C46.2018 8.54773 47.862 8.88195 49.4118 9.55048C50.9615 10.219 52.3055 11.1263 53.4441 12.2725C54.5828 13.4186 55.4841 14.7715 56.1483 16.3314C56.8124 17.8914 57.1445 19.5469 57.1445 21.2978C57.1445 23.0486 56.8124 24.6961 56.1483 26.2401C55.4841 27.7841 54.5828 29.1292 53.4441 30.2752C52.3055 31.4213 50.9615 32.3286 49.4118 32.9972C47.862 33.6657 46.2017 33.9999 44.4307 33.9999C42.7228 33.9999 41.1337 33.6736 39.663 33.0209C38.1924 32.3683 36.9036 31.4849 35.7967 30.3707V33.4269H31.0527V0H35.8441ZM36.3896 24.5927C36.8165 25.6115 37.4096 26.5029 38.1687 27.2669C38.9277 28.031 39.8132 28.6359 40.8253 29.0816C41.8374 29.5273 42.9284 29.7501 44.0986 29.7501C45.2373 29.7501 46.3125 29.5273 47.3245 29.0816C48.3365 28.6359 49.2141 28.0311 49.9575 27.2669C50.7006 26.503 51.2936 25.6115 51.7364 24.5927C52.1791 23.574 52.4005 22.4757 52.4005 21.2978C52.4005 20.1199 52.1791 19.0136 51.7364 17.9789C51.2936 16.9443 50.7006 16.045 49.9575 15.2809C49.2142 14.517 48.3366 13.92 47.3245 13.4902C46.3124 13.0605 45.2372 12.8455 44.0986 12.8455C42.9601 12.8455 41.8848 13.0604 40.8728 13.4902C39.8608 13.9201 38.9753 14.517 38.2161 15.2809C37.4572 16.045 36.8562 16.9443 36.4135 17.9789C35.9707 19.0136 35.7493 20.1199 35.7493 21.2978C35.7492 22.4757 35.9627 23.574 36.3896 24.5927Z" fill="#154444"/>
<path d="M59.848 16.3792C60.4805 14.8511 61.3504 13.5061 62.4572 12.3441C63.564 11.1821 64.8766 10.2669 66.3947 9.59833C67.9128 8.92979 69.5574 8.59558 71.3284 8.59558C73.0679 8.59558 74.6809 8.91394 76.1673 9.55057C77.6537 10.1873 78.9346 11.0707 80.0099 12.2009C81.0852 13.331 81.9234 14.6682 82.5241 16.2121C83.1251 17.7562 83.4255 19.4355 83.4255 21.2501V22.826H63.7381C63.8963 23.8129 64.2126 24.7281 64.687 25.5716C65.1614 26.4153 65.7543 27.1475 66.4659 27.7683C67.1775 28.3892 67.984 28.8747 68.8853 29.2247C69.7867 29.5749 70.7433 29.7501 71.7554 29.7501C74.6335 29.7501 76.9581 28.5562 78.7291 26.1685L82.1922 28.7471C80.9904 30.3708 79.504 31.6442 77.733 32.5674C75.9618 33.4906 73.9694 33.9522 71.7555 33.9522C69.9528 33.9522 68.2687 33.6338 66.7032 32.9971C65.1377 32.3605 63.7778 31.469 62.6234 30.3229C61.4691 29.1768 60.5598 27.8318 59.8957 26.2878C59.2315 24.7439 58.8994 23.0645 58.8994 21.2499C58.8992 19.5309 59.2156 17.9073 59.848 16.3792ZM66.5133 14.4929C65.1692 15.623 64.2758 17.1273 63.833 19.0055H78.5868C78.1756 17.1273 77.298 15.623 75.9538 14.4929C74.6097 13.3628 73.0363 12.7977 71.2336 12.7977C69.4309 12.7977 67.8575 13.3628 66.5133 14.4929Z" fill="#154444"/>
<path d="M92.3916 15.0421C91.3796 16.1563 90.8735 17.6684 90.8735 19.5786V33.427H86.082V9.07304H90.8259V12.0815C91.4269 11.0946 92.2097 10.3146 93.1742 9.74157C94.1388 9.16846 95.2853 8.8819 96.6137 8.8819H98.274V13.3707H96.2816C94.7003 13.3708 93.4036 13.9278 92.3916 15.0421Z" fill="#154444"/>
</g>
<defs>
<clipPath id="clip0_27_7">
<rect width="97.2975" height="34" fill="white" transform="translate(0.976562)"/>
</clipPath>
</defs>
</svg>
