<svg width="91" height="32" viewBox="0 0 91 32" fill="none" xmlns="http://www.w3.org/2000/svg">
<g clip-path="url(#clip0_27_30)">
<path d="M33.5977 29.76L38.1488 4.16H45.2599L40.851 29.76H33.5977Z" fill="#3C58BF"/>
<path d="M33.5977 29.76L39.4288 4.16H45.2599L40.851 29.76H33.5977Z" fill="#293688"/>
<path d="M66.592 4.44445C65.1698 3.87556 62.8943 3.30667 60.0498 3.30667C52.9387 3.30667 47.8187 6.86222 47.8187 11.9822C47.8187 15.8222 51.3743 17.8133 54.2187 19.0933C57.0631 20.3733 57.9165 21.2267 57.9165 22.3644C57.9165 24.0711 55.6409 24.9244 53.6498 24.9244C50.8054 24.9244 49.2409 24.4978 46.8231 23.5022L45.8276 23.0756L44.832 28.9067C46.5387 29.6178 49.6676 30.3289 52.9387 30.3289C60.4765 30.3289 65.4543 26.7733 65.4543 21.3689C65.4543 18.3822 63.6054 16.1067 59.3387 14.2578C56.7787 12.9778 55.2143 12.2667 55.2143 10.9867C55.2143 9.84889 56.4943 8.71111 59.3387 8.71111C61.7565 8.71111 63.4631 9.13778 64.7431 9.70667L65.4543 9.99111L66.592 4.44445Z" fill="#3C58BF"/>
<path d="M66.592 4.44445C65.1698 3.87556 62.8943 3.30667 60.0498 3.30667C52.9387 3.30667 49.0987 6.86222 49.0987 11.9822C49.0987 15.8222 51.3743 17.8133 54.2187 19.0933C57.0631 20.3733 57.9165 21.2267 57.9165 22.3644C57.9165 24.0711 55.6409 24.9244 53.6498 24.9244C50.8054 24.9244 49.2409 24.4978 46.8231 23.5022L45.8276 23.0756L44.832 28.9067C46.5387 29.6178 49.6676 30.3289 52.9387 30.3289C60.4765 30.3289 65.4543 26.7733 65.4543 21.3689C65.4543 18.3822 63.6054 16.1067 59.3387 14.2578C56.7787 12.9778 55.2143 12.2667 55.2143 10.9867C55.2143 9.84889 56.4943 8.71111 59.3387 8.71111C61.7565 8.71111 63.4631 9.13778 64.7431 9.70667L65.4543 9.99111L66.592 4.44445Z" fill="#293688"/>
<path d="M78.8234 4.16C77.1168 4.16 75.8368 4.30223 75.1256 6.00889L64.459 29.76H72.139L73.5612 25.4933H82.6634L83.5168 29.76H90.3434L84.3701 4.16H78.8234ZM75.5523 21.2267C75.979 19.9467 78.3968 13.6889 78.3968 13.6889C78.3968 13.6889 78.9656 12.1245 79.3923 11.1289L79.819 13.5467C79.819 13.5467 81.2412 19.9467 81.5256 21.3689H75.5523V21.2267Z" fill="#3C58BF"/>
<path d="M80.5301 4.16C78.8234 4.16 77.5434 4.30223 76.8323 6.00889L64.459 29.76H72.139L73.5612 25.4933H82.6634L83.5168 29.76H90.3434L84.3701 4.16H80.5301ZM75.5523 21.2267C76.1212 19.8045 78.3968 13.6889 78.3968 13.6889C78.3968 13.6889 78.9656 12.1245 79.3923 11.1289L79.819 13.5467C79.819 13.5467 81.2412 19.9467 81.5256 21.3689H75.5523V21.2267Z" fill="#293688"/>
<path d="M20.5133 22.0801L19.8022 18.3823C18.5222 14.1156 14.3978 9.42228 9.84668 7.14672L16.2467 29.9023H23.9267L35.4467 4.30228H27.7667L20.5133 22.0801Z" fill="#3C58BF"/>
<path d="M20.5133 22.0801L19.8022 18.3823C18.5222 14.1156 14.3978 9.42228 9.84668 7.14672L16.2467 29.9023H23.9267L35.4467 4.30228H29.1889L20.5133 22.0801Z" fill="#293688"/>
<path d="M0.744141 4.16L2.02414 4.44445C11.1264 6.57778 17.3841 11.9822 19.8019 18.3822L17.2419 6.29334C16.8153 4.58667 15.5353 4.16 13.9708 4.16H0.744141Z" fill="#FFBC00"/>
<path d="M0.744141 4.16C9.84636 6.29334 17.3841 11.84 19.8019 18.24L17.3841 8.14223C16.9575 6.43556 15.5353 5.44001 13.9708 5.44001L0.744141 4.16Z" fill="#F7981D"/>
<path d="M0.744141 4.16C9.84636 6.29334 17.3841 11.84 19.8019 18.24L18.0953 12.6933C17.6686 10.9867 17.0997 9.28 15.1086 8.56889L0.744141 4.16Z" fill="#ED7C00"/>
<path d="M27.6238 21.2266L22.7883 16.3911L20.5127 21.7955L19.9438 18.24C18.6638 13.9733 14.5394 9.27998 9.98828 7.00443L16.3883 29.76H24.0683L27.6238 21.2266Z" fill="#051244"/>
<path d="M40.85 29.7601L34.7345 23.5024L33.5967 29.7601H40.85Z" fill="#051244"/>
<path d="M57.2054 20.9422C57.7743 21.5111 58.0587 21.9378 57.9165 22.5067C57.9165 24.2134 55.6409 25.0667 53.6498 25.0667C50.8054 25.0667 49.2409 24.64 46.8231 23.6445L45.8276 23.2178L44.832 29.0489C46.5387 29.76 49.6676 30.4711 52.9387 30.4711C57.4898 30.4711 61.1876 29.1911 63.3209 26.9156L57.2054 20.9422Z" fill="#051244"/>
<path d="M65.4551 29.7598H72.1395L73.5617 25.4932H82.664L83.5173 29.7598H90.344L87.9262 19.3776L79.3929 11.1287L79.8195 13.4043C79.8195 13.4043 81.2417 19.8043 81.5262 21.2265H75.5529C76.1217 19.8043 78.3973 13.6887 78.3973 13.6887C78.3973 13.6887 78.9662 12.1243 79.3929 11.1287" fill="#051244"/>
</g>
<defs>
<clipPath id="clip0_27_30">
<rect width="89.6" height="32" fill="white" transform="translate(0.744141)"/>
</clipPath>
</defs>
</svg>
