<svg width="10" height="16" viewBox="0 0 10 16" fill="none" xmlns="http://www.w3.org/2000/svg">
<path d="M0.255752 8.62432L7.37595 15.7444C7.54063 15.9092 7.76047 16 7.99487 16C8.22928 16 8.44911 15.9092 8.6138 15.7444L9.13815 15.2202C9.47935 14.8786 9.47935 14.3234 9.13815 13.9823L3.15914 8.00332L9.14478 2.01768C9.30946 1.85286 9.40039 1.63316 9.40039 1.39888C9.40039 1.16435 9.30946 0.944643 9.14478 0.779701L8.62043 0.255608C8.45562 0.0907965 8.23591 9.53674e-07 8.00151 9.53674e-07C7.7671 9.53674e-07 7.54727 0.0907965 7.38259 0.255608L0.255752 7.38218C0.0906801 7.54752 1.43051e-05 7.76826 0.000534058 8.00293C1.43051e-05 8.2385 0.0906801 8.45912 0.255752 8.62432Z" fill="#666666"/>
</svg>
