<svg width="19" height="18" viewBox="0 0 19 18" fill="none" xmlns="http://www.w3.org/2000/svg">
<path d="M12.5 9H14.5C14.5 7.67392 13.9732 6.40215 13.0355 5.46447C12.0979 4.52678 10.8261 4 9.5 4V6C10.2956 6 11.0587 6.31607 11.6213 6.87868C12.1839 7.44129 12.5 8.20435 12.5 9ZM16.5 9H18.5C18.5 4 14.47 0 9.5 0V2C13.36 2 16.5 5.13 16.5 9ZM17.5 12.5C16.25 12.5 15.05 12.3 13.93 11.93C13.58 11.82 13.19 11.9 12.91 12.18L10.71 14.38C7.87331 12.9333 5.56671 10.6267 4.12 7.79L6.32 5.59C6.6 5.31 6.68 4.92 6.57 4.57C6.19065 3.41806 5.99821 2.2128 6 1C6 0.734784 5.89464 0.48043 5.70711 0.292893C5.51957 0.105357 5.26522 0 5 0H1.5C1.23478 0 0.98043 0.105357 0.792893 0.292893C0.605357 0.48043 0.5 0.734784 0.5 1C0.5 5.50868 2.29107 9.8327 5.47918 13.0208C8.6673 16.2089 12.9913 18 17.5 18C17.7652 18 18.0196 17.8946 18.2071 17.7071C18.3946 17.5196 18.5 17.2652 18.5 17V13.5C18.5 13.2348 18.3946 12.9804 18.2071 12.7929C18.0196 12.6054 17.7652 12.5 17.5 12.5Z" fill="#1F6C94"/>
</svg>
