<svg width="34" height="34" viewBox="0 0 34 34" fill="none" xmlns="http://www.w3.org/2000/svg">
<path d="M28.8014 33.3845H5.19906C3.98348 33.3845 2.81769 32.9016 1.95815 32.0421C1.09861 31.1825 0.615723 30.0167 0.615723 28.8011V5.19881C0.615723 3.98324 1.09861 2.81745 1.95815 1.95791C2.81769 1.09836 3.98348 0.615479 5.19906 0.615479H28.8014C30.017 0.615479 31.1828 1.09836 32.0423 1.95791C32.9018 2.81745 33.3847 3.98324 33.3847 5.19881V28.8011C33.3847 30.0167 32.9018 31.1825 32.0423 32.0421C31.1828 32.9016 30.017 33.3845 28.8014 33.3845ZM5.19906 2.44881C4.46971 2.44881 3.77024 2.73854 3.25451 3.25427C2.73879 3.76999 2.44906 4.46947 2.44906 5.19881V28.8011C2.44906 29.5305 2.73879 30.23 3.25451 30.7457C3.77024 31.2614 4.46971 31.5511 5.19906 31.5511H28.8014C29.5307 31.5511 30.2302 31.2614 30.7459 30.7457C31.2617 30.23 31.5514 29.5305 31.5514 28.8011V5.19881C31.5514 4.46947 31.2617 3.76999 30.7459 3.25427C30.2302 2.73854 29.5307 2.44881 28.8014 2.44881H5.19906Z" fill="#5C686D"/>
<path d="M17 25.4223C15.3341 25.4205 13.7062 24.9248 12.3221 23.998C10.9379 23.0712 9.85956 21.7547 9.22341 20.2152C8.58727 18.6756 8.42186 16.982 8.74809 15.3484C9.07432 13.7148 9.87755 12.2146 11.0562 11.0375C12.2349 9.86032 13.7362 9.05905 15.3702 8.73495C17.0041 8.41085 18.6976 8.57848 20.2363 9.21663C21.7751 9.85479 23.0901 10.9348 24.0151 12.3202C24.9401 13.7056 25.4337 15.3341 25.4333 17C25.4304 19.2347 24.5406 21.377 22.9593 22.9561C21.3781 24.5353 19.2347 25.4223 17 25.4223ZM17 10.4C15.6972 10.4018 14.4242 10.7896 13.3417 11.5145C12.2593 12.2395 11.416 13.2689 10.9182 14.4728C10.4205 15.6768 10.2908 17.0012 10.5454 18.2789C10.8 19.5565 11.4275 20.73 12.3487 21.6512C13.2699 22.5724 14.4434 23.1999 15.7211 23.4545C16.9987 23.7091 18.3232 23.5794 19.5271 23.0817C20.731 22.584 21.7605 21.7406 22.4854 20.6582C23.2103 19.5757 23.5982 18.3027 23.6 17C23.6 15.2495 22.9046 13.5708 21.6669 12.3331C20.4291 11.0953 18.7504 10.4 17 10.4Z" fill="#5C686D"/>
<path d="M26.5333 9.49245C27.6218 9.49245 28.5042 8.61008 28.5042 7.52161C28.5042 6.43315 27.6218 5.55078 26.5333 5.55078C25.4449 5.55078 24.5625 6.43315 24.5625 7.52161C24.5625 8.61008 25.4449 9.49245 26.5333 9.49245Z" fill="#5C686D"/>
</svg>
