<svg width="24" height="32" viewBox="0 0 24 32" fill="none" xmlns="http://www.w3.org/2000/svg">
<path d="M12 16C12.825 16 13.5315 15.6864 14.1195 15.0592C14.7075 14.432 15.001 13.6789 15 12.8C15 11.92 14.706 11.1664 14.118 10.5392C13.53 9.912 12.824 9.59893 12 9.6C11.175 9.6 10.4685 9.9136 9.8805 10.5408C9.2925 11.168 8.999 11.9211 9 12.8C9 13.68 9.294 14.4336 9.882 15.0608C10.47 15.688 11.176 16.0011 12 16ZM12 27.76C15.05 24.7733 17.3125 22.0597 18.7875 19.6192C20.2625 17.1787 21 15.0123 21 13.12C21 10.2133 20.131 7.8336 18.393 5.9808C16.655 4.128 14.524 3.20107 12 3.2C9.475 3.2 7.3435 4.12693 5.6055 5.9808C3.8675 7.83467 2.999 10.2144 3 13.12C3 15.0133 3.7375 17.1803 5.2125 19.6208C6.6875 22.0613 8.95 24.7744 12 27.76ZM12 32C7.975 28.3467 4.969 24.9536 2.982 21.8208C0.995 18.688 0.001 15.7877 0 13.12C0 9.12 1.2065 5.93333 3.6195 3.56C6.0325 1.18667 8.826 0 12 0C15.175 0 17.969 1.18667 20.382 3.56C22.795 5.93333 24.001 9.12 24 13.12C24 15.7867 23.006 18.6869 21.018 21.8208C19.03 24.9547 16.024 28.3477 12 32Z" fill="#5C686D"/>
</svg>
