<svg width="44" height="44" viewBox="0 0 44 44" fill="none" xmlns="http://www.w3.org/2000/svg">
<path d="M33.8011 38.3845H10.1988C8.98324 38.3845 7.81745 37.9016 6.95791 37.0421C6.09836 36.1825 5.61548 35.0168 5.61548 33.8012V10.1988C5.61548 8.98327 6.09836 7.81748 6.95791 6.95794C7.81745 6.09839 8.98324 5.61551 10.1988 5.61551H33.8011C35.0167 5.61551 36.1825 6.09839 37.0421 6.95794C37.9016 7.81748 38.3845 8.98327 38.3845 10.1988V33.8012C38.3845 35.0168 37.9016 36.1825 37.0421 37.0421C36.1825 37.9016 35.0167 38.3845 33.8011 38.3845ZM10.1988 7.44884C9.46947 7.44884 8.76999 7.73857 8.25427 8.2543C7.73854 8.77002 7.44881 9.4695 7.44881 10.1988V33.8012C7.44881 34.5305 7.73854 35.23 8.25427 35.7457C8.76999 36.2614 9.46947 36.5512 10.1988 36.5512H33.8011C34.5305 36.5512 35.23 36.2614 35.7457 35.7457C36.2614 35.23 36.5511 34.5305 36.5511 33.8012V10.1988C36.5511 9.4695 36.2614 8.77002 35.7457 8.2543C35.23 7.73857 34.5305 7.44884 33.8011 7.44884H10.1988Z" fill="#5C686D"/>
<path d="M22 30.4223C20.3341 30.4205 18.7062 29.9249 17.3221 28.998C15.9379 28.0712 14.8596 26.7548 14.2234 25.2152C13.5873 23.6756 13.4219 21.982 13.7481 20.3484C14.0743 18.7148 14.8775 17.2147 16.0562 16.0375C17.2349 14.8604 18.7362 14.0591 20.3702 13.735C22.0041 13.4109 23.6976 13.5785 25.2363 14.2167C26.7751 14.8548 28.0901 15.9349 29.0151 17.3202C29.9401 18.7056 30.4337 20.3342 30.4333 22C30.4304 24.2348 29.5406 26.377 27.9593 27.9562C26.3781 29.5353 24.2347 30.4223 22 30.4223ZM22 15.4C20.6972 15.4018 19.4242 15.7897 18.3417 16.5146C17.2593 17.2395 16.416 18.2689 15.9182 19.4729C15.4205 20.6768 15.2908 22.0012 15.5454 23.2789C15.8 24.5565 16.4275 25.7301 17.3487 26.6513C18.2699 27.5724 19.4434 28.2 20.7211 28.4546C21.9987 28.7092 23.3232 28.5794 24.5271 28.0817C25.731 27.584 26.7605 26.7407 27.4854 25.6582C28.2103 24.5758 28.5982 23.3028 28.6 22C28.6 20.2496 27.9046 18.5708 26.6669 17.3331C25.4291 16.0954 23.7504 15.4 22 15.4Z" fill="#5C686D"/>
<path d="M31.5333 14.4925C32.6218 14.4925 33.5042 13.6101 33.5042 12.5217C33.5042 11.4332 32.6218 10.5508 31.5333 10.5508C30.4449 10.5508 29.5625 11.4332 29.5625 12.5217C29.5625 13.6101 30.4449 14.4925 31.5333 14.4925Z" fill="#5C686D"/>
</svg>
