<svg width="44" height="44" viewBox="0 0 44 44" fill="none" xmlns="http://www.w3.org/2000/svg">
<path d="M27.1186 19.7542L20.394 15.8822C19.9991 15.6549 19.5515 15.5354 19.0959 15.5357C18.6403 15.5361 18.1928 15.6562 17.7983 15.8841C17.4038 16.112 17.0762 16.4396 16.8483 16.8341C16.6204 17.2286 16.5003 17.6761 16.5 18.1317V25.872C16.4945 26.7997 16.9895 27.6577 17.7943 28.116C18.1889 28.3465 18.6376 28.4683 19.0945 28.469C19.5515 28.4696 20.0005 28.3491 20.3958 28.1197L27.1186 24.2477C27.5136 24.0206 27.8416 23.6935 28.0698 23.2992C28.2979 22.9049 28.418 22.4574 28.418 22.0018C28.418 21.5463 28.2979 21.0988 28.0698 20.7045C27.8416 20.3102 27.5136 19.9831 27.1186 19.756V19.7542ZM26.202 22.6545L19.481 26.5283C19.3645 26.5967 19.2319 26.6327 19.0969 26.6327C18.9618 26.6327 18.8293 26.5967 18.7128 26.5283C18.5962 26.4624 18.4995 26.3663 18.4328 26.2502C18.366 26.1341 18.3317 26.0023 18.3333 25.8683V18.1317C18.332 17.9981 18.3665 17.8666 18.4333 17.7508C18.5 17.6351 18.5965 17.5393 18.7128 17.4735C18.8282 17.4032 18.9608 17.3661 19.096 17.3661C19.2311 17.3661 19.3637 17.4032 19.4791 17.4735L26.202 21.3473C26.3179 21.4128 26.4144 21.5079 26.4815 21.6229C26.5486 21.7379 26.584 21.8687 26.584 22.0018C26.584 22.135 26.5486 22.2658 26.4815 22.3808C26.4144 22.4958 26.3179 22.589 26.202 22.6545ZM34.8333 7.33334H9.16663C7.70838 7.3348 6.31028 7.91473 5.27915 8.94586C4.24801 9.977 3.66808 11.3751 3.66663 12.8333V31.1667C3.66808 32.6249 4.24801 34.023 5.27915 35.0542C6.31028 36.0853 7.70838 36.6652 9.16663 36.6667H34.8333C36.2915 36.6652 37.6896 36.0853 38.7208 35.0542C39.7519 34.023 40.3318 32.6249 40.3333 31.1667V12.8333C40.3318 11.3751 39.7519 9.977 38.7208 8.94586C37.6896 7.91473 36.2915 7.3348 34.8333 7.33334ZM38.5 31.1667C38.4985 32.1387 38.1117 33.0705 37.4244 33.7578C36.7371 34.4451 35.8053 34.8319 34.8333 34.8333H9.16663C8.19461 34.8319 7.26283 34.4451 6.57551 33.7578C5.88819 33.0705 5.50141 32.1387 5.49996 31.1667V12.8333C5.50141 11.8613 5.88819 10.9295 6.57551 10.2422C7.26283 9.55491 8.19461 9.16813 9.16663 9.16668H34.8333C35.8053 9.16813 36.7371 9.55491 37.4244 10.2422C38.1117 10.9295 38.4985 11.8613 38.5 12.8333V31.1667Z" fill="#5C686D"/>
</svg>
