<svg width="36" height="36" viewBox="0 0 36 36" fill="none" xmlns="http://www.w3.org/2000/svg">
<path d="M34.5 10.6667V25.3333C34.5 27.7645 33.5342 30.0961 31.8151 31.8151C30.0961 33.5342 27.7645 34.5 25.3333 34.5H10.6667C8.23552 34.5 5.90394 33.5342 4.18485 31.8151C2.46577 30.0961 1.5 27.7645 1.5 25.3333V10.6667C1.5 8.23552 2.46577 5.90394 4.18485 4.18485C5.90394 2.46577 8.23552 1.5 10.6667 1.5H25.3333C27.7645 1.5 30.0961 2.46577 31.8151 4.18485C33.5342 5.90394 34.5 8.23552 34.5 10.6667Z" stroke="#5C686D" stroke-width="1.5" stroke-linecap="round" stroke-linejoin="round"/>
<path d="M16.1667 34.5V18C16.1667 13.9887 17.0833 10.6667 23.5 10.6667M12.5 19.8333H23.5" stroke="#5C686D" stroke-width="1.5" stroke-linecap="round" stroke-linejoin="round"/>
</svg>
