<svg width="38" height="30" viewBox="0 0 38 30" fill="none" xmlns="http://www.w3.org/2000/svg">
<path d="M24.1185 12.7541L17.3938 8.88209C16.999 8.65477 16.5513 8.53529 16.0958 8.53563C15.6402 8.53596 15.1927 8.6561 14.7982 8.884C14.4037 9.11189 14.0761 9.43952 13.8482 9.83401C13.6203 10.2285 13.5002 10.676 13.4998 11.1316V18.8719C13.4943 19.7996 13.9893 20.6576 14.7942 21.1159C15.1888 21.3464 15.6374 21.4682 16.0944 21.4689C16.5514 21.4695 17.0004 21.349 17.3957 21.1196L24.1185 17.2476C24.5134 17.0205 24.8415 16.6934 25.0696 16.2991C25.2978 15.9048 25.4179 15.4573 25.4179 15.0018C25.4179 14.5462 25.2978 14.0987 25.0696 13.7044C24.8415 13.3101 24.5134 12.983 24.1185 12.7559V12.7541ZM23.2018 15.6544L16.4808 19.5283C16.3644 19.5966 16.2318 19.6326 16.0968 19.6326C15.9617 19.6326 15.8291 19.5966 15.7127 19.5283C15.5961 19.4623 15.4994 19.3662 15.4327 19.2501C15.3659 19.1341 15.3316 19.0022 15.3332 18.8683V11.1316C15.3319 10.998 15.3664 10.8665 15.4331 10.7507C15.4999 10.635 15.5964 10.5392 15.7127 10.4734C15.8281 10.4032 15.9607 10.366 16.0958 10.366C16.231 10.366 16.3635 10.4032 16.479 10.4734L23.2018 14.3473C23.3178 14.4127 23.4142 14.5078 23.4814 14.6228C23.5485 14.7378 23.5839 14.8686 23.5839 15.0018C23.5839 15.1349 23.5485 15.2657 23.4814 15.3807C23.4142 15.4957 23.3178 15.5889 23.2018 15.6544ZM31.8332 0.333252H6.1665C4.70826 0.334708 3.31016 0.914638 2.27902 1.94577C1.24789 2.97691 0.66796 4.37501 0.666504 5.83325V24.1666C0.66796 25.6248 1.24789 27.0229 2.27902 28.0541C3.31016 29.0852 4.70826 29.6651 6.1665 29.6666H31.8332C33.2914 29.6651 34.6895 29.0852 35.7206 28.0541C36.7518 27.0229 37.3317 25.6248 37.3332 24.1666V5.83325C37.3317 4.37501 36.7518 2.97691 35.7206 1.94577C34.6895 0.914638 33.2914 0.334708 31.8332 0.333252ZM35.4998 24.1666C35.4984 25.1386 35.1116 26.0704 34.4243 26.7577C33.737 27.445 32.8052 27.8318 31.8332 27.8333H6.1665C5.19449 27.8318 4.2627 27.445 3.57539 26.7577C2.88807 26.0704 2.50129 25.1386 2.49984 24.1666V5.83325C2.50129 4.86124 2.88807 3.92945 3.57539 3.24213C4.2627 2.55482 5.19449 2.16804 6.1665 2.16659H31.8332C32.8052 2.16804 33.737 2.55482 34.4243 3.24213C35.1116 3.92945 35.4984 4.86124 35.4998 5.83325V24.1666Z" fill="#5C686D"/>
</svg>
