<svg width="43" height="50" viewBox="0 0 43 50" fill="none" xmlns="http://www.w3.org/2000/svg">
<path d="M42.528 13.5662L42.5265 13.5273C42.5047 13.047 42.4902 12.5389 42.4815 11.9736C42.4407 9.21668 40.2491 6.93626 37.4919 6.78214C31.7431 6.46133 27.296 4.58679 23.4962 0.883111L23.4637 0.852212C22.2243 -0.284183 20.3548 -0.284183 19.115 0.852212L19.0826 0.883111C15.2828 4.58679 10.8356 6.46133 5.08687 6.78252C2.32999 6.93626 0.138074 9.21668 0.0972567 11.9739C0.0888644 12.5355 0.0739871 13.0436 0.0522434 13.5273L0.0499546 13.6177C-0.0618157 19.4797 -0.20067 26.7753 2.23997 33.3972C3.58197 37.0387 5.61444 40.2041 8.28052 42.8061C11.317 45.7694 15.2942 48.1219 20.1015 49.7981C20.2579 49.8526 20.4204 49.8969 20.5859 49.9301C20.8194 49.9766 21.0544 49.9999 21.2894 49.9999C21.5244 49.9999 21.7597 49.9766 21.9928 49.9301C22.1584 49.8969 22.322 49.8522 22.4792 49.7973C27.2807 48.1181 31.2537 45.7644 34.2875 42.8016C36.9525 40.1988 38.9849 37.0326 40.3281 33.3903C42.7779 26.7486 42.6394 19.4393 42.528 13.5662ZM37.5754 32.3753C35.0013 39.3546 29.7465 44.1478 21.511 47.0279C21.4816 47.0378 21.4503 47.0465 21.4179 47.053C21.3329 47.0698 21.2463 47.0698 21.16 47.0526C21.128 47.0462 21.0967 47.0378 21.0677 47.0279C12.8234 44.1531 7.56527 39.3626 4.99303 32.3829C2.7435 26.279 2.87092 19.5819 2.98345 13.6738L2.98421 13.641C3.0071 13.1332 3.02236 12.6014 3.03075 12.017C3.04906 10.7929 4.0241 9.78011 5.25052 9.71182C8.50368 9.53024 11.3616 8.90158 13.9877 7.78998C16.6103 6.67991 18.9395 5.11513 21.1078 3.00637C21.218 2.91329 21.3611 2.91291 21.4709 3.00637C23.6396 5.11513 25.9688 6.67991 28.5911 7.78998C31.2171 8.90158 34.0751 9.53024 37.3286 9.71182C38.555 9.78011 39.5301 10.7929 39.548 12.0174C39.5568 12.6049 39.572 13.1366 39.5949 13.641C39.7071 19.556 39.8314 26.2584 37.5754 32.3753Z" fill="#244D4D"/>
<path d="M21.2888 12.5401C14.4178 12.5401 8.82812 18.1301 8.82812 25.0008C8.82812 31.8718 14.4178 37.4619 21.2888 37.4619C28.1595 37.4619 33.7495 31.8718 33.7495 25.0008C33.7495 18.1301 28.1595 12.5401 21.2888 12.5401ZM21.2888 34.5276C16.0356 34.5276 11.762 30.254 11.762 25.0008C11.762 19.7476 16.0356 15.474 21.2888 15.474C26.5417 15.474 30.8153 19.7476 30.8153 25.0008C30.8153 30.254 26.5417 34.5276 21.2888 34.5276Z" fill="#244D4D"/>
<path d="M24.8696 21.1323L19.082 26.92L17.5111 25.3491C16.9381 24.7761 16.0092 24.7761 15.4363 25.3491C14.8637 25.922 14.8637 26.8509 15.4363 27.4235L18.0448 30.032C18.3312 30.3185 18.7066 30.4615 19.082 30.4615C19.4573 30.4615 19.8327 30.3185 20.1192 30.032L26.9445 23.2067C27.517 22.6338 27.517 21.7049 26.9445 21.1323C26.3715 20.5589 25.4426 20.5589 24.8696 21.1323Z" fill="#244D4D"/>
</svg>
