<svg width="50" height="50" viewBox="0 0 50 50" fill="none" xmlns="http://www.w3.org/2000/svg">
<path d="M40.6901 20.3972H35.8789V17.155C35.8789 16.346 35.223 15.6902 34.4141 15.6902H1.46484C0.655859 15.6902 0 16.346 0 17.155V43.8281C0 44.6371 0.655859 45.293 1.46484 45.293H6.45312C8.04727 51.5314 16.851 51.5272 18.4427 45.293H31.5572C33.1514 51.5314 41.9551 51.5272 43.5468 45.293H48.5352C49.3441 45.293 50 44.6371 50 43.8281V29.707C50 24.5736 45.8235 20.3972 40.6901 20.3972ZM12.4479 47.0703C10.6602 47.0703 9.20576 45.6158 9.20576 43.8281C9.38379 39.527 15.5128 39.5282 15.6901 43.8281C15.6901 45.6158 14.2356 47.0703 12.4479 47.0703ZM32.9492 39.7222C32.2866 40.4642 31.8009 41.3665 31.5572 42.3632H18.4427C16.8485 36.1249 8.04482 36.1291 6.45312 42.3632H2.92969V18.6197H32.9492V39.7222ZM37.5521 47.0703C35.7643 47.0703 34.3099 45.6158 34.3099 43.8281C34.4879 39.527 40.6169 39.5282 40.7942 43.8281C40.7942 45.6158 39.3398 47.0703 37.5521 47.0703ZM47.0703 42.3633H43.5484C42.8891 39.6649 40.4508 37.6563 37.5521 37.6563H35.8789V23.3269H39.2253V32.8451C39.2253 33.6541 39.8812 34.31 40.6901 34.31H47.0703V42.3633ZM47.0703 31.3802H42.155V23.4965C44.9692 24.1603 47.0703 26.693 47.0703 29.707V31.3802Z" fill="#244D4D"/>
<path d="M35.9828 12.3438H39.9053C41.8489 12.2663 41.8474 9.49072 39.9053 9.41406H37.712L38.0082 7.63672H39.9053C41.8489 7.55928 41.8474 4.78369 39.9053 4.70703H38.4964L38.7926 2.92969H41.4743C43.4178 2.85225 43.4164 0.0766602 41.4743 0H37.5517C36.8356 0 36.2245 0.517676 36.1068 1.22402L34.5378 10.6381C34.389 11.5312 35.0789 12.3438 35.9828 12.3438V12.3438Z" fill="#244D4D"/>
<path d="M26.5686 12.3438H30.4912C32.4347 12.2663 32.4333 9.49072 30.4912 9.41406H28.2978L28.594 7.63672H30.4912C32.4347 7.55928 32.4333 4.78369 30.4912 4.70703H29.0824L29.3787 2.92969H32.0602C34.0038 2.85225 34.0023 0.0766602 32.0602 0H28.1377C27.4216 0 26.8105 0.517676 26.6928 1.22402L25.1238 10.6381C24.975 11.5312 25.6648 12.3438 26.5686 12.3438Z" fill="#244D4D"/>
<path d="M15.3455 12.3238C16.4828 12.5134 16.9631 11.5279 17.0312 11.1197L17.2714 9.67852L20.1553 12.0167C20.8219 12.557 21.7379 12.3908 22.2158 11.8014C22.7253 11.1729 22.6289 10.2505 22.0004 9.74102L20.3724 8.42119H21.7313C22.4473 8.42119 23.0584 7.90352 23.1762 7.19727L24.0917 1.70576C24.2406 0.812598 23.5507 0 22.6468 0H17.1553C16.4392 0 15.8281 0.517676 15.7104 1.22402L14.8013 6.67813C14.8009 6.68008 14.8007 6.68213 14.8003 6.68408C14.7996 6.68799 14.7991 6.6919 14.7984 6.6958C14.7952 6.71367 14.7919 6.73164 14.7894 6.74971L14.1413 10.6381C14.0082 11.436 14.5474 12.1908 15.3455 12.3238ZM18.3962 2.92969H20.9175L20.4905 5.4915H17.9692L18.3962 2.92969Z" fill="#244D4D"/>
<path d="M6.7155 12.3239C7.8528 12.5134 8.33317 11.5279 8.40124 11.1198L8.85095 8.42131H10.8788C12.8223 8.34387 12.8209 5.56829 10.8788 5.49163H9.33923L9.76618 2.92981H12.4478C14.3914 2.85237 14.3899 0.0767822 12.4478 0.00012207H8.52526C7.80915 0.00012207 7.19802 0.517798 7.08034 1.22415L5.5114 10.6382C5.37829 11.4361 5.91745 12.1908 6.7155 12.3239Z" fill="#244D4D"/>
</svg>
