<svg width="10" height="10" viewBox="0 0 10 10" fill="none" xmlns="http://www.w3.org/2000/svg">
<path d="M7.61719 6.48438C7.03836 6.48438 6.52404 6.76566 6.20356 7.19865L3.44438 5.78859C3.49066 5.63133 3.51562 5.46502 3.51562 5.29297C3.51562 5.05994 3.46994 4.83742 3.38723 4.63373L6.27902 2.89627C6.60168 3.27498 7.08184 3.51562 7.61719 3.51562C8.58644 3.51562 9.375 2.72707 9.375 1.75781C9.375 0.788555 8.58644 0 7.61719 0C6.64793 0 5.85938 0.788555 5.85938 1.75781C5.85938 1.98184 5.90158 2.19615 5.97832 2.39336L3.0793 4.13516C2.75688 3.76762 2.284 3.53516 1.75781 3.53516C0.788555 3.53516 0 4.32371 0 5.29297C0 6.26223 0.788555 7.05078 1.75781 7.05078C2.34613 7.05078 2.86781 6.76023 3.18705 6.31512L5.93822 7.72107C5.88699 7.8858 5.85938 8.06082 5.85938 8.24219C5.85938 9.21144 6.64793 10 7.61719 10C8.58644 10 9.375 9.21144 9.375 8.24219C9.375 7.27293 8.58644 6.48438 7.61719 6.48438ZM7.61719 0.585938C8.26336 0.585938 8.78906 1.11164 8.78906 1.75781C8.78906 2.40398 8.26336 2.92969 7.61719 2.92969C6.97102 2.92969 6.44531 2.40398 6.44531 1.75781C6.44531 1.11164 6.97102 0.585938 7.61719 0.585938ZM1.75781 6.46484C1.11164 6.46484 0.585938 5.93914 0.585938 5.29297C0.585938 4.6468 1.11164 4.12109 1.75781 4.12109C2.40398 4.12109 2.92969 4.6468 2.92969 5.29297C2.92969 5.93914 2.40398 6.46484 1.75781 6.46484ZM7.61719 9.41406C6.97102 9.41406 6.44531 8.88836 6.44531 8.24219C6.44531 7.59602 6.97102 7.07031 7.61719 7.07031C8.26336 7.07031 8.78906 7.59602 8.78906 8.24219C8.78906 8.88836 8.26336 9.41406 7.61719 9.41406Z" fill="black"/>
</svg>
