<svg width="16" height="12" viewBox="0 0 16 12" fill="none" xmlns="http://www.w3.org/2000/svg">
<path d="M15.7821 4.97921L11.0208 0.217876C10.7303 -0.0726253 10.2591 -0.0726253 9.96863 0.217876C9.67807 0.508437 9.67807 0.979452 9.96863 1.27001L13.4599 4.76132H0.743959C0.333115 4.76132 0 5.09444 0 5.50528C0 5.91607 0.333115 6.24924 0.743959 6.24924H13.4599L9.96875 9.74055C9.67819 10.0311 9.67819 10.5021 9.96875 10.7927C10.114 10.9379 10.3044 11.0106 10.4948 11.0106C10.6852 11.0106 10.8756 10.9379 11.0209 10.7927L15.7821 6.03135C16.0727 5.74079 16.0727 5.26977 15.7821 4.97921Z" fill="white"/>
</svg>
