<svg width="24" height="24" viewBox="0 0 24 24" fill="none" xmlns="http://www.w3.org/2000/svg">
<g clip-path="url(#clip0_31_307)">
<path d="M0.00585938 24H9.89184V18.3308H0.00585938V24ZM2.16802 19.7989H7.77652V21.2045H2.16802V19.7989Z" fill="#666666"/>
<path d="M0.00585938 16.9252H9.89184V11.3497H0.00585938V16.9252ZM2.16802 12.8453H7.77652V14.2509H2.16802V12.8453Z" fill="#666666"/>
<path d="M11.2969 24H23.994V11.3497H11.2969V24ZM19.7304 12.8453H21.136V14.2856H19.7304V12.8453ZM16.9192 12.8453H18.3248V14.2856H16.9192V12.8453ZM14.1081 12.8453H15.5137V14.2856H14.1081V12.8453ZM14.1081 15.5431H21.136V21.1889H14.1081V15.5431Z" fill="#666666"/>
<path d="M19.7304 3.24052V0H15.5137V3.24286L11.2969 6.054V8.53852H23.994V6.05166L19.7304 3.24052Z" fill="#666666"/>
</g>
<defs>
<clipPath id="clip0_31_307">
<rect width="24" height="24" fill="white"/>
</clipPath>
</defs>
</svg>
