<svg width="24" height="24" viewBox="0 0 24 24" fill="none" xmlns="http://www.w3.org/2000/svg">
<g clip-path="url(#clip0_43_68)">
<path d="M23.625 7.31323H0.375C0.167542 7.31323 0 7.14569 0 6.93823V5.4375C0 5.23004 0.167542 5.0625 0.375 5.0625H23.625C23.8325 5.0625 24 5.23004 24 5.4375V6.93823C24 7.14569 23.8325 7.31323 23.625 7.31323ZM0.75 6.56323H23.25V5.8125H0.75V6.56323Z" fill="#666666"/>
<path d="M0.75 18.9451C0.542542 18.9451 0.375 18.7775 0.375 18.5701V7.00513C0.375 6.79767 0.542542 6.63013 0.75 6.63013C0.957458 6.63013 1.125 6.79767 1.125 7.00513V18.5701C1.125 18.7775 0.957458 18.9451 0.75 18.9451Z" fill="#666666"/>
<path d="M1.875 18.9451C1.66754 18.9451 1.5 18.7775 1.5 18.5701V7.00513C1.5 6.79767 1.66754 6.63013 1.875 6.63013C2.08246 6.63013 2.25 6.79767 2.25 7.00513V18.5701C2.25 18.7775 2.08246 18.9451 1.875 18.9451Z" fill="#666666"/>
<path d="M22.125 18.9451C21.9175 18.9451 21.75 18.7775 21.75 18.5701V7.00513C21.75 6.79767 21.9175 6.63013 22.125 6.63013C22.3325 6.63013 22.5 6.79767 22.5 7.00513V18.5701C22.5 18.7775 22.3325 18.9451 22.125 18.9451Z" fill="#666666"/>
<path d="M23.25 18.9451C23.0425 18.9451 22.875 18.7775 22.875 18.5701V7.00513C22.875 6.79767 23.0425 6.63013 23.25 6.63013C23.4575 6.63013 23.625 6.79767 23.625 7.00513V18.5701C23.625 18.7775 23.4575 18.9451 23.25 18.9451Z" fill="#666666"/>
<path d="M1.875 18.9451H0.75C0.542542 18.9451 0.375 18.7775 0.375 18.5701C0.375 18.3626 0.542542 18.1951 0.75 18.1951H1.875C2.08246 18.1951 2.25 18.3626 2.25 18.5701C2.25 18.7775 2.08246 18.9451 1.875 18.9451Z" fill="#666666"/>
<path d="M23.25 18.9451H22.125C21.9175 18.9451 21.75 18.7775 21.75 18.5701C21.75 18.3626 21.9175 18.1951 22.125 18.1951H23.25C23.4575 18.1951 23.625 18.3626 23.625 18.5701C23.625 18.7775 23.4575 18.9451 23.25 18.9451Z" fill="#666666"/>
<path d="M22.125 12.5679H1.875C1.66754 12.5679 1.5 12.4001 1.5 12.1929C1.5 11.9854 1.66754 11.8179 1.875 11.8179H22.125C22.3325 11.8179 22.5 11.9854 22.5 12.1929C22.5 12.4001 22.3325 12.5679 22.125 12.5679Z" fill="#666666"/>
<path d="M22.125 13.6936H1.875C1.66754 13.6936 1.5 13.5259 1.5 13.3186C1.5 13.1111 1.66754 12.9436 1.875 12.9436H22.125C22.3325 12.9436 22.5 13.1111 22.5 13.3186C22.5 13.5259 22.3325 13.6936 22.125 13.6936Z" fill="#666666"/>
<path d="M3.375 12.5686C3.16754 12.5686 3 12.4009 3 12.1936C3 11.1596 3.84082 10.3186 4.87463 10.3186C5.08191 10.3186 5.24963 10.4861 5.24963 10.6936C5.24963 10.9009 5.08191 11.0686 4.87463 11.0686C4.25482 11.0686 3.75 11.5732 3.75 12.1936C3.75 12.4009 3.58228 12.5686 3.375 12.5686Z" fill="#666666"/>
<path d="M7.12463 12.5686C6.91718 12.5686 6.74963 12.4009 6.74963 12.1936C6.74963 11.5732 6.24481 11.0686 5.625 11.0686C5.41772 11.0686 5.25 10.9009 5.25 10.6936C5.25 10.4861 5.41772 10.3186 5.625 10.3186C6.65881 10.3186 7.49963 11.1596 7.49963 12.1936C7.49963 12.4009 7.33209 12.5686 7.12463 12.5686Z" fill="#666666"/>
<path d="M3.75 11.5767C3.54254 11.5767 3.375 11.409 3.375 11.2017V9.1936C3.375 8.98615 3.54254 8.8186 3.75 8.8186C3.95728 8.8186 4.125 8.98615 4.125 9.1936V11.2017C4.125 11.409 3.95728 11.5767 3.75 11.5767Z" fill="#666666"/>
<path d="M6.74805 11.5767C6.54059 11.5767 6.37305 11.409 6.37305 11.2017V9.1936C6.37305 8.98615 6.54059 8.8186 6.74805 8.8186C6.95532 8.8186 7.12305 8.98615 7.12305 9.1936V11.2017C7.12305 11.409 6.95532 11.5767 6.74805 11.5767Z" fill="#666666"/>
<path d="M4.5 9.94434C4.29254 9.94434 4.125 9.77661 4.125 9.56934V8.4436C4.125 8.23615 4.29254 8.0686 4.5 8.0686C4.70746 8.0686 4.875 8.23615 4.875 8.4436V9.56934C4.875 9.77661 4.70746 9.94434 4.5 9.94434Z" fill="#666666"/>
<path d="M6 8.8186H4.5C4.29254 8.8186 4.125 8.65088 4.125 8.4436C4.125 8.23615 4.29254 8.0686 4.5 8.0686H6C6.20746 8.0686 6.375 8.23615 6.375 8.4436C6.375 8.65088 6.20746 8.8186 6 8.8186Z" fill="#666666"/>
<path d="M6 9.94434C5.79254 9.94434 5.625 9.77661 5.625 9.56934V8.4436C5.625 8.23615 5.79254 8.0686 6 8.0686C6.20746 8.0686 6.375 8.23615 6.375 8.4436V9.56934C6.375 9.77661 6.20746 9.94434 6 9.94434Z" fill="#666666"/>
<path d="M4.50073 9.5686H3.75C3.54254 9.5686 3.375 9.40088 3.375 9.1936C3.375 8.98615 3.54254 8.8186 3.75 8.8186H4.50073C4.70819 8.8186 4.87573 8.98615 4.87573 9.1936C4.87573 9.40088 4.70819 9.5686 4.50073 9.5686Z" fill="#666666"/>
<path d="M6.74854 9.5686H6C5.79254 9.5686 5.625 9.40088 5.625 9.1936C5.625 8.98615 5.79254 8.8186 6 8.8186H6.74854C6.95581 8.8186 7.12354 8.98615 7.12354 9.1936C7.12354 9.40088 6.95581 9.5686 6.74854 9.5686Z" fill="#666666"/>
<path d="M5.62451 11.0686H4.87305C4.66559 11.0686 4.49805 10.9009 4.49805 10.6936C4.49805 10.4861 4.66559 10.3186 4.87305 10.3186H5.62451C5.83197 10.3186 5.99951 10.4861 5.99951 10.6936C5.99951 10.9009 5.83197 11.0686 5.62451 11.0686Z" fill="#666666"/>
<path d="M8.25 12.5686C8.04254 12.5686 7.875 12.4009 7.875 12.1936C7.875 11.1596 8.71582 10.3186 9.74963 10.3186C9.95691 10.3186 10.1246 10.4861 10.1246 10.6936C10.1246 10.9009 9.95691 11.0686 9.74963 11.0686C9.12982 11.0686 8.625 11.5732 8.625 12.1936C8.625 12.4009 8.45728 12.5686 8.25 12.5686Z" fill="#666666"/>
<path d="M11.9996 12.5686C11.7922 12.5686 11.6246 12.4009 11.6246 12.1936C11.6246 11.5732 11.1198 11.0686 10.5 11.0686C10.2927 11.0686 10.125 10.9009 10.125 10.6936C10.125 10.4861 10.2927 10.3186 10.5 10.3186C11.5338 10.3186 12.3746 11.1596 12.3746 12.1936C12.3746 12.4009 12.2071 12.5686 11.9996 12.5686Z" fill="#666666"/>
<path d="M8.625 11.5767C8.41754 11.5767 8.25 11.409 8.25 11.2017V9.1936C8.25 8.98615 8.41754 8.8186 8.625 8.8186C8.83228 8.8186 9 8.98615 9 9.1936V11.2017C9 11.409 8.83228 11.5767 8.625 11.5767Z" fill="#666666"/>
<path d="M11.623 11.5767C11.4156 11.5767 11.248 11.409 11.248 11.2017V9.1936C11.248 8.98615 11.4156 8.8186 11.623 8.8186C11.8303 8.8186 11.998 8.98615 11.998 9.1936V11.2017C11.998 11.409 11.8303 11.5767 11.623 11.5767Z" fill="#666666"/>
<path d="M9.375 9.94434C9.16754 9.94434 9 9.77661 9 9.56934V8.4436C9 8.23615 9.16754 8.0686 9.375 8.0686C9.58246 8.0686 9.75 8.23615 9.75 8.4436V9.56934C9.75 9.77661 9.58246 9.94434 9.375 9.94434Z" fill="#666666"/>
<path d="M10.875 8.8186H9.375C9.16754 8.8186 9 8.65088 9 8.4436C9 8.23615 9.16754 8.0686 9.375 8.0686H10.875C11.0825 8.0686 11.25 8.23615 11.25 8.4436C11.25 8.65088 11.0825 8.8186 10.875 8.8186Z" fill="#666666"/>
<path d="M10.875 9.94434C10.6675 9.94434 10.5 9.77661 10.5 9.56934V8.4436C10.5 8.23615 10.6675 8.0686 10.875 8.0686C11.0825 8.0686 11.25 8.23615 11.25 8.4436V9.56934C11.25 9.77661 11.0825 9.94434 10.875 9.94434Z" fill="#666666"/>
<path d="M9.37573 9.5686H8.625C8.41754 9.5686 8.25 9.40088 8.25 9.1936C8.25 8.98615 8.41754 8.8186 8.625 8.8186H9.37573C9.58319 8.8186 9.75073 8.98615 9.75073 9.1936C9.75073 9.40088 9.58319 9.5686 9.37573 9.5686Z" fill="#666666"/>
<path d="M11.6235 9.5686H10.875C10.6675 9.5686 10.5 9.40088 10.5 9.1936C10.5 8.98615 10.6675 8.8186 10.875 8.8186H11.6235C11.8308 8.8186 11.9985 8.98615 11.9985 9.1936C11.9985 9.40088 11.8308 9.5686 11.6235 9.5686Z" fill="#666666"/>
<path d="M10.4995 11.0686H9.74805C9.54059 11.0686 9.37305 10.9009 9.37305 10.6936C9.37305 10.4861 9.54059 10.3186 9.74805 10.3186H10.4995C10.707 10.3186 10.8745 10.4861 10.8745 10.6936C10.8745 10.9009 10.707 11.0686 10.4995 11.0686Z" fill="#666666"/>
<path d="M12.0078 18.1943C11.8004 18.1943 11.6328 18.0266 11.6328 17.8193C11.6328 17.1986 12.138 16.6936 12.7585 16.6936C12.966 16.6936 13.1335 16.8611 13.1335 17.0686C13.1335 17.2759 12.966 17.4436 12.7585 17.4436C12.5513 17.4436 12.3828 17.6119 12.3828 17.8193C12.3828 18.0266 12.2149 18.1943 12.0078 18.1943Z" fill="#666666"/>
<path d="M15.7598 18.1943C15.5525 18.1943 15.3848 18.0266 15.3848 17.8193C15.3848 17.6122 15.2169 17.4443 15.0098 17.4443C14.8025 17.4443 14.6348 17.2766 14.6348 17.0693C14.6348 16.8619 14.8025 16.6943 15.0098 16.6943C15.6301 16.6943 16.1348 17.199 16.1348 17.8193C16.1348 18.0266 15.9672 18.1943 15.7598 18.1943Z" fill="#666666"/>
<path d="M15.7589 18.9451H12.0078C11.8004 18.9451 11.6328 18.7775 11.6328 18.5701C11.6328 18.3626 11.8004 18.1951 12.0078 18.1951H15.7593C15.9667 18.1951 16.1343 18.3626 16.1343 18.5701C16.1343 18.7775 15.9664 18.9451 15.7589 18.9451Z" fill="#666666"/>
<path d="M15.0393 17.4436H12.7285C12.5212 17.4436 12.3535 17.2759 12.3535 17.0686C12.3535 16.8611 12.5212 16.6936 12.7285 16.6936H15.0393C15.2468 16.6936 15.4143 16.8611 15.4143 17.0686C15.4143 17.2759 15.2468 17.4436 15.0393 17.4436Z" fill="#666666"/>
<path d="M12.7578 17.4436C12.5504 17.4436 12.3828 17.2759 12.3828 17.0686V14.8193C12.3828 14.6119 12.5504 14.4443 12.7578 14.4443C12.9653 14.4443 13.1328 14.6119 13.1328 14.8193V17.0686C13.1328 17.2759 12.9653 17.4436 12.7578 17.4436Z" fill="#666666"/>
<path d="M15.0098 17.4443C14.8025 17.4443 14.6348 17.2766 14.6348 17.0693V14.8193C14.6348 14.6119 14.8025 14.4443 15.0098 14.4443C15.2172 14.4443 15.3848 14.6119 15.3848 14.8193V17.0693C15.3848 17.2766 15.2172 17.4443 15.0098 17.4443Z" fill="#666666"/>
<path d="M12.0078 18.9451C11.8004 18.9451 11.6328 18.7775 11.6328 18.5701V17.8193C11.6328 17.6119 11.8004 17.4443 12.0078 17.4443C12.2153 17.4443 12.3828 17.6119 12.3828 17.8193V18.5701C12.3828 18.7775 12.2149 18.9451 12.0078 18.9451Z" fill="#666666"/>
<path d="M15.7598 18.9451C15.5525 18.9451 15.3848 18.7775 15.3848 18.5701V17.8193C15.3848 17.6119 15.5525 17.4443 15.7598 17.4443C15.9672 17.4443 16.1348 17.6119 16.1348 17.8193V18.5701C16.1348 18.7775 15.9672 18.9451 15.7598 18.9451Z" fill="#666666"/>
<path d="M15.0093 15.1943H12.7578C12.5504 15.1943 12.3828 15.0266 12.3828 14.8193C12.3828 14.6119 12.5504 14.4443 12.7578 14.4443H15.0093C15.2167 14.4443 15.3843 14.6119 15.3843 14.8193C15.3843 15.0266 15.2167 15.1943 15.0093 15.1943Z" fill="#666666"/>
<path d="M15.3839 16.3193H12.3828C12.1754 16.3193 12.0078 16.1516 12.0078 15.9443C12.0078 15.7369 12.1754 15.5693 12.3828 15.5693H15.3839C15.5914 15.5693 15.7589 15.7369 15.7589 15.9443C15.7589 16.1516 15.5914 16.3193 15.3839 16.3193Z" fill="#666666"/>
<path d="M16.8828 18.1943C16.6754 18.1943 16.5078 18.0266 16.5078 17.8193C16.5078 17.1986 17.013 16.6936 17.6335 16.6936C17.841 16.6936 18.0085 16.8611 18.0085 17.0686C18.0085 17.2759 17.841 17.4436 17.6335 17.4436C17.4263 17.4436 17.2578 17.6119 17.2578 17.8193C17.2578 18.0266 17.0899 18.1943 16.8828 18.1943Z" fill="#666666"/>
<path d="M20.6348 18.1943C20.4275 18.1943 20.2598 18.0266 20.2598 17.8193C20.2598 17.6122 20.0919 17.4443 19.8848 17.4443C19.6775 17.4443 19.5098 17.2766 19.5098 17.0693C19.5098 16.8619 19.6775 16.6943 19.8848 16.6943C20.5051 16.6943 21.0098 17.199 21.0098 17.8193C21.0098 18.0266 20.8422 18.1943 20.6348 18.1943Z" fill="#666666"/>
<path d="M20.6339 18.9451H16.8828C16.6754 18.9451 16.5078 18.7775 16.5078 18.5701C16.5078 18.3626 16.6754 18.1951 16.8828 18.1951H20.6343C20.8417 18.1951 21.0093 18.3626 21.0093 18.5701C21.0093 18.7775 20.8414 18.9451 20.6339 18.9451Z" fill="#666666"/>
<path d="M19.9143 17.4436H17.6035C17.3962 17.4436 17.2285 17.2759 17.2285 17.0686C17.2285 16.8611 17.3962 16.6936 17.6035 16.6936H19.9143C20.1218 16.6936 20.2893 16.8611 20.2893 17.0686C20.2893 17.2759 20.1218 17.4436 19.9143 17.4436Z" fill="#666666"/>
<path d="M17.6328 17.4436C17.4254 17.4436 17.2578 17.2759 17.2578 17.0686V14.8193C17.2578 14.6119 17.4254 14.4443 17.6328 14.4443C17.8403 14.4443 18.0078 14.6119 18.0078 14.8193V17.0686C18.0078 17.2759 17.8403 17.4436 17.6328 17.4436Z" fill="#666666"/>
<path d="M19.8848 17.4443C19.6775 17.4443 19.5098 17.2766 19.5098 17.0693V14.8193C19.5098 14.6119 19.6775 14.4443 19.8848 14.4443C20.0922 14.4443 20.2598 14.6119 20.2598 14.8193V17.0693C20.2598 17.2766 20.0922 17.4443 19.8848 17.4443Z" fill="#666666"/>
<path d="M16.8828 18.9451C16.6754 18.9451 16.5078 18.7775 16.5078 18.5701V17.8193C16.5078 17.6119 16.6754 17.4443 16.8828 17.4443C17.0903 17.4443 17.2578 17.6119 17.2578 17.8193V18.5701C17.2578 18.7775 17.0899 18.9451 16.8828 18.9451Z" fill="#666666"/>
<path d="M20.6348 18.9451C20.4275 18.9451 20.2598 18.7775 20.2598 18.5701V17.8193C20.2598 17.6119 20.4275 17.4443 20.6348 17.4443C20.8422 17.4443 21.0098 17.6119 21.0098 17.8193V18.5701C21.0098 18.7775 20.8422 18.9451 20.6348 18.9451Z" fill="#666666"/>
<path d="M19.8843 15.1943H17.6328C17.4254 15.1943 17.2578 15.0266 17.2578 14.8193C17.2578 14.6119 17.4254 14.4443 17.6328 14.4443H19.8843C20.0917 14.4443 20.2593 14.6119 20.2593 14.8193C20.2593 15.0266 20.0917 15.1943 19.8843 15.1943Z" fill="#666666"/>
<path d="M20.2589 16.3193H17.2578C17.0504 16.3193 16.8828 16.1516 16.8828 15.9443C16.8828 15.7369 17.0504 15.5693 17.2578 15.5693H20.2589C20.4664 15.5693 20.6339 15.7369 20.6339 15.9443C20.6339 16.1516 20.4664 16.3193 20.2589 16.3193Z" fill="#666666"/>
</g>
<defs>
<clipPath id="clip0_43_68">
<rect width="24" height="24" fill="white"/>
</clipPath>
</defs>
</svg>
