<svg width="24" height="18" viewBox="0 0 24 18" fill="none" xmlns="http://www.w3.org/2000/svg">
<path d="M4.45312 8.25H10.5938C11.1336 8.25 11.6265 8.45409 12 8.78883C12.3735 8.45405 12.8664 8.25 13.4062 8.25H19.5469V0.709453C19.5469 0.322969 19.2376 0.00135937 18.8512 0C18.8453 0 19.0911 0 5.15625 0C4.75612 0 4.45312 0.328031 4.45312 0.709453V8.25Z" fill="#666666"/>
<path d="M12.7031 10.3594V12H19.5469C19.5469 10.9614 19.5469 10.7481 19.5469 9.65625H13.4062C13.0185 9.65625 12.7031 9.97167 12.7031 10.3594Z" fill="#666666"/>
<path d="M21.7272 4.8761C21.2938 4.8896 20.9531 5.25317 20.9531 5.68676C20.9531 5.79804 20.9531 13.1025 20.9531 12.7032C20.9531 13.0915 20.6383 13.4063 20.25 13.4063C19.6879 13.4063 3.21623 13.4063 3.75 13.4063C3.36169 13.4063 3.04688 13.0915 3.04688 12.7032C3.04688 12.4437 3.04688 5.61912 3.04688 5.68676C3.04688 5.25317 2.70623 4.8896 2.27283 4.8761C1.02361 4.8372 0 5.83657 0 7.07815V14.2969C0 15.4619 0.944391 16.4063 2.10938 16.4063H3.04688V17.1833C3.04688 17.5619 3.33783 17.8877 3.71602 17.9055C4.1198 17.9245 4.45312 17.6028 4.45312 17.2032V16.4063H19.5469V17.1833C19.5469 17.5619 19.8378 17.8877 20.216 17.9055C20.6198 17.9245 20.9531 17.6028 20.9531 17.2032V16.4063H21.8906C23.0556 16.4063 24 15.4619 24 14.2969V7.11776C24 5.81974 22.9684 4.83743 21.7272 4.8761Z" fill="#666666"/>
<path d="M11.2969 10.3594C11.2969 9.97167 10.9815 9.65625 10.5938 9.65625H4.45312V12H11.2969V10.3594Z" fill="#666666"/>
</svg>
