<svg width="112" height="47" viewBox="0 0 112 47" fill="none" xmlns="http://www.w3.org/2000/svg">
<g clip-path="url(#clip0_24_4)">
<path d="M7.81512 18.1341C7.81512 16.9296 8.80358 16.4661 10.441 16.4661C12.7885 16.4661 15.7538 17.1767 18.1015 18.4432V11.1839C15.5377 10.1646 13.0048 9.76299 10.441 9.76299C4.17015 9.76299 0 13.0374 0 18.5051C0 27.0304 11.7381 25.6715 11.7381 29.3475C11.7381 30.7682 10.5027 31.2317 8.77273 31.2317C6.20896 31.2317 2.93453 30.1813 0.339693 28.7604V36.1123C3.21254 37.3479 6.11622 37.8728 8.77273 37.8728C15.1978 37.8728 19.6151 34.6914 19.6151 29.162C19.5843 19.9568 7.81512 21.5938 7.81512 18.1341ZM28.6967 3.58509L21.1596 5.19125L21.1288 29.9341C21.1288 34.5061 24.5576 37.8728 29.1294 37.8728C31.6623 37.8728 33.5156 37.4096 34.5349 36.8535V30.5829C33.5467 30.9845 28.6659 32.4054 28.6659 27.8336V16.8677H34.5349V10.2882H28.6659L28.6967 3.58509ZM44.1419 12.5739L43.6476 10.2882H36.9753V37.3168H44.6979V18.9992C46.5202 16.6207 49.6093 17.0532 50.567 17.3928V10.2882C49.5785 9.91742 45.9644 9.23781 44.1419 12.5739ZM52.4511 10.2882H60.2046V37.3168H52.4511V10.2882ZM52.4511 7.9405L60.2046 6.27245V0.00180054L52.4511 1.63902V7.94029V7.9405ZM76.3291 9.76299C73.3019 9.76299 71.3558 11.1839 70.2748 12.1726L69.873 10.2573H63.0774V46.2748L70.7998 44.6378L70.8308 35.8959C71.9429 36.6991 73.5799 37.842 76.2983 37.842C81.8277 37.842 86.8627 33.3938 86.8627 23.6018C86.8318 14.6436 81.7349 9.76299 76.3291 9.76299ZM74.4758 31.0462C72.6533 31.0462 71.5719 30.3976 70.8308 29.5944L70.7998 18.1341C71.603 17.2384 72.715 16.6207 74.4758 16.6207C77.2868 16.6207 79.2328 19.7713 79.2328 23.8179C79.2328 27.9572 77.3176 31.0462 74.4758 31.0462ZM111.204 23.9107C111.204 16.0028 107.374 9.76299 100.053 9.76299C92.7007 9.76299 88.2525 16.003 88.2525 23.849C88.2525 33.1467 93.5041 37.842 101.041 37.842C104.717 37.842 107.497 37.008 109.598 35.8342V29.6561C107.497 30.7065 105.088 31.3552 102.03 31.3552C99.0332 31.3552 96.3767 30.3049 96.037 26.6599H111.142C111.142 26.2581 111.204 24.6519 111.204 23.9107ZM95.9443 20.9761C95.9443 17.4856 98.0758 16.0336 100.022 16.0336C101.906 16.0336 103.914 17.4856 103.914 20.9761H95.9443Z" fill="#154444" fill-opacity="0.86"/>
</g>
<defs>
<clipPath id="clip0_24_4">
<rect width="111.204" height="46.4833" fill="white"/>
</clipPath>
</defs>
</svg>
