<svg width="90" height="32" viewBox="0 0 90 32" fill="none" xmlns="http://www.w3.org/2000/svg">
<g clip-path="url(#clip0_27_30)">
<path d="M32.8535 29.76L37.4046 4.16H44.5157L40.1068 29.76H32.8535Z" fill="#3C58BF"/>
<path d="M32.8535 29.76L38.6846 4.16H44.5157L40.1068 29.76H32.8535Z" fill="#293688"/>
<path d="M65.8479 4.44445C64.4257 3.87556 62.1501 3.30667 59.3057 3.30667C52.1946 3.30667 47.0746 6.86222 47.0746 11.9822C47.0746 15.8222 50.6301 17.8133 53.4746 19.0933C56.319 20.3733 57.1723 21.2267 57.1723 22.3644C57.1723 24.0711 54.8968 24.9244 52.9057 24.9244C50.0612 24.9244 48.4968 24.4978 46.079 23.5022L45.0834 23.0756L44.0879 28.9067C45.7946 29.6178 48.9234 30.3289 52.1946 30.3289C59.7323 30.3289 64.7101 26.7733 64.7101 21.3689C64.7101 18.3822 62.8612 16.1067 58.5946 14.2578C56.0346 12.9778 54.4701 12.2667 54.4701 10.9867C54.4701 9.84889 55.7501 8.71111 58.5946 8.71111C61.0123 8.71111 62.719 9.13778 63.999 9.70667L64.7101 9.99111L65.8479 4.44445Z" fill="#3C58BF"/>
<path d="M65.8479 4.44445C64.4257 3.87556 62.1501 3.30667 59.3057 3.30667C52.1946 3.30667 48.3546 6.86222 48.3546 11.9822C48.3546 15.8222 50.6301 17.8133 53.4746 19.0933C56.319 20.3733 57.1723 21.2267 57.1723 22.3644C57.1723 24.0711 54.8968 24.9244 52.9057 24.9244C50.0612 24.9244 48.4968 24.4978 46.079 23.5022L45.0834 23.0756L44.0879 28.9067C45.7946 29.6178 48.9234 30.3289 52.1946 30.3289C59.7323 30.3289 64.7101 26.7733 64.7101 21.3689C64.7101 18.3822 62.8612 16.1067 58.5946 14.2578C56.0346 12.9778 54.4701 12.2667 54.4701 10.9867C54.4701 9.84889 55.7501 8.71111 58.5946 8.71111C61.0123 8.71111 62.719 9.13778 63.999 9.70667L64.7101 9.99111L65.8479 4.44445Z" fill="#293688"/>
<path d="M78.0793 4.16C76.3726 4.16 75.0926 4.30223 74.3815 6.00889L63.7148 29.76H71.3948L72.8171 25.4933H81.9193L82.7726 29.76H89.5993L83.6259 4.16H78.0793ZM74.8082 21.2267C75.2348 19.9467 77.6526 13.6889 77.6526 13.6889C77.6526 13.6889 78.2215 12.1245 78.6482 11.1289L79.0748 13.5467C79.0748 13.5467 80.4971 19.9467 80.7815 21.3689H74.8082V21.2267Z" fill="#3C58BF"/>
<path d="M79.7859 4.16C78.0793 4.16 76.7993 4.30223 76.0882 6.00889L63.7148 29.76H71.3948L72.8171 25.4933H81.9193L82.7726 29.76H89.5993L83.6259 4.16H79.7859ZM74.8082 21.2267C75.3771 19.8045 77.6526 13.6889 77.6526 13.6889C77.6526 13.6889 78.2215 12.1245 78.6482 11.1289L79.0748 13.5467C79.0748 13.5467 80.4971 19.9467 80.7815 21.3689H74.8082V21.2267Z" fill="#293688"/>
<path d="M19.7692 22.0801L19.0581 18.3823C17.7781 14.1156 13.6537 9.42228 9.10254 7.14672L15.5025 29.9023H23.1825L34.7025 4.30228H27.0225L19.7692 22.0801Z" fill="#3C58BF"/>
<path d="M19.7692 22.0801L19.0581 18.3823C17.7781 14.1156 13.6537 9.42228 9.10254 7.14672L15.5025 29.9023H23.1825L34.7025 4.30228H28.4448L19.7692 22.0801Z" fill="#293688"/>
<path d="M0 4.16L1.28 4.44445C10.3822 6.57778 16.64 11.9822 19.0578 18.3822L16.4978 6.29334C16.0711 4.58667 14.7911 4.16 13.2267 4.16H0Z" fill="#FFBC00"/>
<path d="M0 4.16C9.10222 6.29334 16.64 11.84 19.0578 18.24L16.64 8.14223C16.2133 6.43556 14.7911 5.44001 13.2267 5.44001L0 4.16Z" fill="#F7981D"/>
<path d="M0 4.16C9.10222 6.29334 16.64 11.84 19.0578 18.24L17.3511 12.6933C16.9244 10.9867 16.3556 9.28 14.3644 8.56889L0 4.16Z" fill="#ED7C00"/>
<path d="M26.8797 21.2266L22.0441 16.3911L19.7686 21.7955L19.1997 18.24C17.9197 13.9733 13.7953 9.27998 9.24414 7.00443L15.6441 29.76H23.3241L26.8797 21.2266Z" fill="#051244"/>
<path d="M40.1059 29.7601L33.9903 23.5024L32.8525 29.7601H40.1059Z" fill="#051244"/>
<path d="M56.4612 20.9422C57.0301 21.5111 57.3146 21.9378 57.1723 22.5067C57.1723 24.2134 54.8968 25.0667 52.9057 25.0667C50.0612 25.0667 48.4968 24.64 46.079 23.6445L45.0834 23.2178L44.0879 29.0489C45.7946 29.76 48.9234 30.4711 52.1946 30.4711C56.7457 30.4711 60.4434 29.1911 62.5768 26.9156L56.4612 20.9422Z" fill="#051244"/>
<path d="M64.7109 29.7598H71.3954L72.8176 25.4932H81.9198L82.7732 29.7598H89.5998L87.182 19.3776L78.6487 11.1287L79.0754 13.4043C79.0754 13.4043 80.4976 19.8043 80.782 21.2265H74.8087C75.3776 19.8043 77.6532 13.6887 77.6532 13.6887C77.6532 13.6887 78.222 12.1243 78.6487 11.1287" fill="#051244"/>
</g>
<defs>
<clipPath id="clip0_27_30">
<rect width="89.6" height="32" fill="white"/>
</clipPath>
</defs>
</svg>
