<svg width="107" height="38" viewBox="0 0 107 38" fill="none" xmlns="http://www.w3.org/2000/svg">
<path d="M12.7763 0.00134277H4.49512C3.92833 0.00134277 3.44644 0.544012 3.35801 1.28144L0.00869617 29.2643C-0.0579192 29.8163 0.26667 30.3142 0.691626 30.3142H4.64521C5.21189 30.3142 5.69379 29.7718 5.78221 29.033L6.68552 21.4856C6.77276 20.7467 7.25584 20.2041 7.82134 20.2041H10.4429C15.898 20.2041 19.0463 16.7256 19.8685 9.83236C20.239 6.81653 19.8842 4.44705 18.8126 2.78759C17.6356 0.96516 15.548 0.00134277 12.7763 0.00134277ZM13.7318 10.2217C13.2789 14.1375 11.0084 14.1375 8.81307 14.1375H7.56346L8.44011 6.82462C8.49223 6.38257 8.78277 6.05707 9.12187 6.05707H9.69457C11.19 6.05707 12.6008 6.05707 13.3297 7.18029C13.7644 7.85056 13.8976 8.8462 13.7318 10.2217Z" fill="#283B82"/>
<path d="M37.5299 10.0956H33.5644C33.2266 10.0956 32.9348 10.4211 32.8825 10.8631L32.7072 12.3247L32.4298 11.7949C31.5713 10.1529 29.6568 9.60413 27.746 9.60413C23.3639 9.60413 19.621 13.9778 18.8921 20.1131C18.5131 23.1735 19.0519 26.1 20.3693 28.1407C21.5778 30.0172 23.3069 30.7991 25.3643 30.7991C28.8953 30.7991 30.8533 27.8074 30.8533 27.8074L30.6764 29.2594C30.6097 29.8147 30.9344 30.3125 31.357 30.3125H34.9289C35.4969 30.3125 35.9764 29.77 36.0661 29.0313L38.2093 11.1455C38.2772 10.5949 37.9538 10.0956 37.5299 10.0956ZM32.0023 20.2663C31.6198 23.2517 29.8215 25.256 27.5282 25.256C26.3767 25.256 25.4563 24.7692 24.8653 23.8469C24.2793 22.931 24.0565 21.6274 24.243 20.1752C24.6001 17.2153 26.4287 15.1459 28.6868 15.1459C29.8131 15.1459 30.7285 15.6389 31.3315 16.569C31.9359 17.5089 32.1754 18.8205 32.0023 20.2663Z" fill="#283B82"/>
<path d="M58.6512 10.0956H54.6662C54.286 10.0956 53.9287 10.3445 53.7132 10.7611L48.2169 21.4296L45.8873 11.1775C45.7408 10.5359 45.2916 10.0956 44.783 10.0956H40.867C40.391 10.0956 40.0605 10.7083 40.2119 11.2987L44.6013 28.2733L40.4746 35.9501C40.15 36.5547 40.4769 37.3864 41.0378 37.3864H45.0179C45.3957 37.3864 45.7494 37.1437 45.9636 36.7352L59.2179 11.5238C59.5352 10.9205 59.2095 10.0956 58.6512 10.0956Z" fill="#283B82"/>
<path d="M71.8446 0.00134277H63.5622C62.9968 0.00134277 62.5147 0.544012 62.4263 1.28144L59.077 29.2643C59.0106 29.8163 59.335 30.3142 59.7576 30.3142H64.0079C64.4025 30.3142 64.7405 29.9346 64.8022 29.4175L65.7526 21.4856C65.8398 20.7467 66.3231 20.2041 66.8885 20.2041H69.509C74.9651 20.2041 78.1123 16.7256 78.9356 9.83236C79.3075 6.81653 78.9503 4.44705 77.8786 2.78759C76.7027 0.96516 74.6164 0.00134277 71.8446 0.00134277ZM72.8002 10.2217C72.3484 14.1375 70.0782 14.1375 67.8814 14.1375H66.6331L67.511 6.82462C67.5631 6.38257 67.8511 6.05707 68.1914 6.05707H68.7642C70.2585 6.05707 71.6703 6.05707 72.3992 7.18029C72.834 7.85056 72.9659 8.8462 72.8002 10.2217Z" fill="#469BDB"/>
<path d="M96.5982 10.0956H92.635C92.2947 10.0956 92.0051 10.4211 91.9543 10.8631L91.7788 12.3247L91.5003 11.7949C90.6419 10.1529 88.7286 9.60413 86.8178 9.60413C82.4355 9.60413 78.6941 13.9778 77.9649 20.1131C77.5872 23.1735 78.1236 26.1 79.4411 28.1407C80.6521 30.0172 82.3786 30.7991 84.4359 30.7991C87.9669 30.7991 89.9249 27.8074 89.9249 27.8074L89.748 29.2594C89.6816 29.8147 90.006 30.3125 90.4312 30.3125H94.002C94.5674 30.3125 95.0495 29.77 95.1379 29.0313L97.2824 11.1455C97.3475 10.5949 97.0231 10.0956 96.5982 10.0956ZM91.0703 20.2663C90.6901 23.2517 88.8895 25.256 86.5963 25.256C85.447 25.256 84.5243 24.7692 83.9334 23.8469C83.3475 22.931 83.127 21.6274 83.3111 20.1752C83.6706 17.2153 85.4968 15.1459 87.7551 15.1459C88.8812 15.1459 89.7965 15.6389 90.3996 16.569C91.0062 17.5089 91.2459 18.8205 91.0703 20.2663Z" fill="#469BDB"/>
<path d="M101.273 0.769054L97.8739 29.2643C97.8074 29.8163 98.1318 30.3142 98.5545 30.3142H101.972C102.539 30.3142 103.022 29.7718 103.109 29.033L106.46 1.05171C106.527 0.499386 106.203 0 105.78 0H101.953C101.616 0.00133324 101.325 0.327265 101.273 0.769054Z" fill="#469BDB"/>
</svg>
