<svg width="24" height="25" viewBox="0 0 24 25" fill="none" xmlns="http://www.w3.org/2000/svg">
<g clip-path="url(#clip0_6_21)">
<path d="M10.5691 0.0178223C4.74145 0.0178223 0 4.76267 0 10.5945C0 16.4266 4.74145 21.1711 10.5691 21.1711C16.3971 21.1711 21.1382 16.4266 21.1382 10.5945C21.1382 4.76267 16.3971 0.0178223 10.5691 0.0178223ZM10.5691 19.2186C5.81723 19.2186 1.95122 15.3498 1.95122 10.5945C1.95122 5.83927 5.81723 1.97044 10.5691 1.97044C15.321 1.97044 19.187 5.83922 19.187 10.5945C19.187 15.3497 15.321 19.2186 10.5691 19.2186Z" fill="#244D4D"/>
<path d="M23.714 22.3684L18.1205 16.7709C17.7393 16.3895 17.1221 16.3895 16.7409 16.7709C16.3598 17.152 16.3598 17.7704 16.7409 18.1514L22.3344 23.749C22.525 23.9396 22.7745 24.035 23.0242 24.035C23.2736 24.035 23.5234 23.9396 23.714 23.749C24.0951 23.3679 24.0951 22.7495 23.714 22.3684Z" fill="#244D4D"/>
</g>
<defs>
<clipPath id="clip0_6_21">
<rect width="24" height="24.0333" fill="white"/>
</clipPath>
</defs>
</svg>
