<svg width="20" height="20" viewBox="0 0 20 20" fill="none" xmlns="http://www.w3.org/2000/svg">
<path d="M9.99991 19.9998C15.5227 19.9998 19.9998 15.5227 19.9998 9.99991C19.9998 4.47711 15.5227 0 9.99991 0C4.47711 0 0 4.47711 0 9.99991C0 15.5227 4.47711 19.9998 9.99991 19.9998Z" fill="white"/>
<path d="M16.1242 7.18656C15.6957 7.37658 15.2347 7.50511 14.7513 7.56251C15.2449 7.26678 15.6237 6.79885 15.8025 6.24037C15.3406 6.51435 14.8288 6.71311 14.2846 6.82024C13.8486 6.35588 13.2273 6.06567 12.5394 6.06567C11.2196 6.06567 10.1492 7.13611 10.1492 8.45593C10.1492 8.64328 10.1704 8.82564 10.2114 9.00069C8.22489 8.90104 6.46353 7.9495 5.28453 6.50294C5.07882 6.85589 4.96081 7.26678 4.96081 7.70475C4.96081 8.53383 5.3831 9.26576 6.02412 9.69429C5.63249 9.68199 5.26367 9.5745 4.94156 9.395C4.94138 9.40516 4.94138 9.41532 4.94138 9.4253C4.94138 10.5834 5.76565 11.5494 6.8589 11.7689C6.65854 11.8238 6.44695 11.8528 6.22929 11.8528C6.07492 11.8528 5.92537 11.838 5.77955 11.8102C6.08366 12.7596 6.96621 13.4507 8.01241 13.4701C7.1942 14.1113 6.1637 14.4933 5.04352 14.4933C4.851 14.4933 4.66027 14.4821 4.47363 14.4598C5.53088 15.1383 6.7876 15.5338 8.13737 15.5338C12.5339 15.5338 14.9383 11.8917 14.9383 8.73277C14.9383 8.6292 14.9359 8.52599 14.9313 8.42367C15.3987 8.08676 15.8039 7.6659 16.1242 7.18656Z" fill="#305F64"/>
</svg>
