<svg width="102" height="37" viewBox="0 0 102 37" fill="none" xmlns="http://www.w3.org/2000/svg">
<g clip-path="url(#clip0_37_256)">
<path d="M3.73311 14.806C2.74597 14.8052 1.79939 14.5004 1.10024 13.9584C0.401098 13.4164 0.00625097 12.6812 0.0019989 11.9134V10.604H3.89804V11.7585H4.72673H13.3254H14.1561V9.28519H13.3274H3.72305C2.73888 9.28273 1.79578 8.97809 1.09892 8.43756C0.402056 7.89702 0.00782676 7.16432 0.0019989 6.39886V3.62204C0.00517475 2.85535 0.397891 2.12072 1.09455 1.57829C1.7912 1.03586 2.7353 0.729617 3.72104 0.726318H14.3814C15.3639 0.732409 16.3042 1.03796 17.0004 1.57733C17.6965 2.11671 18.0929 2.8469 18.1044 3.61109V4.92206H14.1561V3.76909H13.3254H4.72673H3.89804V6.23303H4.72673H14.3814C15.3656 6.23916 16.3075 6.54578 17.0038 7.08684C17.7002 7.62789 18.0955 8.36007 18.1044 9.12562V11.9024C18.1118 12.2841 18.0175 12.6628 17.8275 13.0147C17.6374 13.3666 17.3558 13.6841 17.0002 13.9471C16.6614 14.2197 16.2549 14.4359 15.8054 14.5824C15.3559 14.729 14.8728 14.8029 14.3854 14.7997L3.73311 14.806Z" fill="white"/>
<path d="M21.5077 14.7933L21.4936 0.73243L35.8509 0.724609C36.8371 0.730639 37.7812 1.03643 38.4814 1.57665C39.1815 2.11686 39.5823 2.84864 39.5981 3.61563V7.25288C39.6027 7.63259 39.5071 8.009 39.3171 8.35882C39.1272 8.70864 38.847 9.02441 38.4938 9.28661C38.1528 9.56268 37.7428 9.78157 37.2889 9.92981C36.8351 10.0781 36.3471 10.1525 35.8549 10.1486L25.3957 10.1736V14.7886L21.5077 14.7933ZM26.2264 7.10582H34.8251H35.6558V3.75643H34.8271H26.2284H25.3977V7.10113L26.2264 7.10582Z" fill="white"/>
<path d="M42.0741 14.7825L42.062 3.597C42.0646 2.83004 42.4571 2.09501 43.1538 1.55225C43.8506 1.00948 44.795 0.703024 45.781 0.699723H56.4152C56.9065 0.694533 57.394 0.76717 57.848 0.91321C58.302 1.05925 58.7131 1.27564 59.0561 1.54919C59.4119 1.81197 59.694 2.12911 59.8847 2.4807C60.0754 2.83229 60.1707 3.21074 60.1644 3.59231L60.1765 14.7778H56.2281V10.241H45.9701V14.7778L42.0741 14.7825ZM45.9641 7.19201H56.2221V4.39642V3.75032H55.3914H46.7928H45.9641V4.39642V7.19201Z" fill="white"/>
<path d="M67.3833 14.7668C66.3979 14.7643 65.4537 14.4591 64.7563 13.9176C64.059 13.3761 63.665 12.6422 63.6602 11.8758V3.58441C63.6629 2.8169 64.0559 2.0814 64.7535 1.53855C65.4511 0.995695 66.3965 0.689597 67.3833 0.68712L81.7144 0.677734V3.72833L68.389 3.73771H67.5583V4.38382V11.0717V11.7162H68.389L81.7144 11.7068V14.7574L67.3833 14.7668Z" fill="white"/>
<path d="M85.017 14.7558L85.0029 0.676134L101.722 0.666748V3.71734L88.9493 3.72516V6.1891H99.2314V9.2397H88.9473V11.7036L101.72 11.6958V14.7464L85.017 14.7558Z" fill="white"/>
<path d="M7.57688 22.3024C7.57875 22.1499 7.54025 21.9987 7.46378 21.8582C7.38731 21.7177 7.2745 21.5909 7.13236 21.4858C6.99508 21.3766 6.83069 21.2901 6.64917 21.2318C6.46765 21.1734 6.27279 21.1444 6.07639 21.1463H1.82231C1.42805 21.148 1.0506 21.2708 0.772189 21.4879C0.493776 21.705 0.336963 21.9989 0.335907 22.3056V26.7798H1.89473V24.9619H5.99794V26.7766H7.57688V22.3024ZM1.89473 23.7448V22.3681H5.99794V23.7448H1.89473Z" fill="white"/>
<path d="M16.4953 26.7658C16.6919 26.7674 16.8868 26.7381 17.0683 26.6795C17.2498 26.6208 17.4141 26.5342 17.5513 26.4247C17.6929 26.3191 17.805 26.1919 17.8808 26.0512C17.9565 25.9104 17.9943 25.7591 17.9918 25.6065V22.29C17.9937 22.1374 17.9552 21.9862 17.8787 21.8457C17.8022 21.7052 17.6894 21.5785 17.5473 21.4734C17.41 21.3641 17.2456 21.2777 17.0641 21.2193C16.8826 21.161 16.6877 21.1319 16.4913 21.1339H10.7488V26.7658H16.4953ZM12.6375 22.3557H16.4149V25.5471H12.3117V22.3557H12.6375Z" fill="white"/>
<path d="M26.0454 26.7594L30.2331 21.126H28.4329L25.3997 25.2185L22.3585 21.1307H20.5483L24.748 26.761L26.0454 26.7594Z" fill="white"/>
<path d="M39.5699 25.5313H34.461V24.5457H38.5743V23.3254H34.461V22.3399H39.5699V21.1196H32.882V26.7515H34.4791C36.1137 26.4511 37.8099 26.1904 39.5679 25.9693L39.5699 25.5313Z" fill="white"/>
<path d="M44.1337 22.9783L46.7203 25.3687C47.7368 25.3228 48.7693 25.2936 49.8179 25.2811V21.1135H48.2349V24.8681L44.178 21.1135H42.5688V25.6503C43.0838 25.6034 43.6047 25.5611 44.1277 25.5236L44.1337 22.9783Z" fill="white"/>
<path d="M56.9945 22.3291H59.8305V21.1089H52.5896V22.3291H55.4256V25.3922C55.9244 25.4173 56.4474 25.4485 56.9945 25.4861V22.3291Z" fill="white"/>
<path d="M68.3347 26.7345C68.5293 26.7355 68.7221 26.7057 68.9015 26.6471C69.0809 26.5885 69.2432 26.5022 69.3786 26.3935C69.5208 26.2881 69.6335 26.1611 69.7096 26.0203C69.7858 25.8795 69.8237 25.728 69.8211 25.5753V21.1011H68.2421V25.2546V25.5127H64.1389V25.2546V21.1011H62.5761V25.5753C62.5749 25.7373 62.6196 25.8975 62.7068 26.0446C64.0987 26.2276 65.567 26.4514 67.1017 26.7251L68.3347 26.7345Z" fill="white"/>
<path d="M74.4895 26.7301V24.8841L76.5612 24.8747L78.5726 26.7285H80.1817V26.3139L78.6128 24.8762H78.6832C79.0776 24.8734 79.4549 24.7507 79.7345 24.5344C80.0141 24.3181 80.1739 24.0253 80.1797 23.7186V22.2637C80.1814 22.1117 80.143 21.9612 80.0668 21.8212C79.9907 21.6813 79.8785 21.555 79.7372 21.4502C79.6005 21.34 79.4363 21.2527 79.2548 21.1935C79.0732 21.1343 78.878 21.1045 78.6812 21.106H72.9387V26.7301H74.4895ZM74.8254 22.3184H78.5866V23.6576H74.4834V22.3184H74.8254Z" fill="white"/>
<path d="M89.955 26.7202V25.5L84.8461 25.5031L84.8441 24.5176L88.9573 24.516V23.2958L84.8441 23.2973L84.8421 22.3117L89.951 22.3086V21.0884L83.2631 21.0931L83.2671 26.7249L89.955 26.7202Z" fill="white"/>
<path d="M100.181 24.4457C100.183 24.2932 100.146 24.1419 100.069 24.0014C99.9932 23.8609 99.8805 23.7341 99.7383 23.6291C99.6027 23.5203 99.44 23.4342 99.2602 23.3758C99.0804 23.3175 98.8872 23.2881 98.6924 23.2896H94.4987V22.3025H98.6019V22.7718H100.181V22.2399C100.183 22.0874 100.146 21.9361 100.069 21.7956C99.9932 21.6551 99.8805 21.5283 99.7383 21.4233C99.6027 21.3145 99.44 21.2284 99.2602 21.17C99.0804 21.1117 98.8872 21.0823 98.6924 21.0838H94.4283C94.0337 21.085 93.6557 21.2076 93.3769 21.4248C93.098 21.642 92.9409 21.9361 92.9399 22.243V23.3537C92.942 23.6601 93.0996 23.9535 93.3783 24.17C93.657 24.3865 94.0344 24.5086 94.4283 24.5098H98.6019V25.4954H94.4987V25.0339H92.9399V25.558C92.942 25.8644 93.0996 26.1577 93.3783 26.3742C93.657 26.5907 94.0344 26.7129 94.4283 26.7141H98.6924C99.0862 26.7108 99.4627 26.5876 99.741 26.3709C100.019 26.1541 100.177 25.8612 100.181 25.5549V24.4457Z" fill="white"/>
<path d="M7.44412 36.5386C12.3398 33.682 28.0467 25.2749 50.8899 25.2749C57.0106 25.2749 76.0604 25.8788 94.3358 36.5386C88.5661 34.1831 82.5 32.2958 76.2333 30.9068C67.9922 29.0663 59.464 28.1187 50.8899 28.0908C42.3148 28.1077 33.7847 29.0555 25.5465 30.9068C19.2846 32.3066 13.2199 34.1934 7.44412 36.5386Z" fill="white"/>
</g>
<defs>
<clipPath id="clip0_37_256">
<rect width="101.736" height="35.8719" fill="white" transform="translate(0 0.666748)"/>
</clipPath>
</defs>
</svg>
