<svg width="18" height="14" viewBox="0 0 18 14" fill="none" xmlns="http://www.w3.org/2000/svg">
<path d="M17.3333 1.9225C16.7086 2.19531 16.047 2.3742 15.37 2.45333C16.0806 2.03603 16.615 1.37425 16.8733 0.591666C16.2 0.983606 15.4656 1.25967 14.7008 1.40833C14.3788 1.071 13.9914 0.802822 13.5623 0.620148C13.1332 0.437474 12.6713 0.344137 12.205 0.345833C10.3166 0.345833 8.78579 1.85417 8.78579 3.7125C8.78579 3.97583 8.81579 4.23333 8.87413 4.47917C7.51961 4.41474 6.19339 4.06867 4.9801 3.46303C3.76681 2.85739 2.69309 2.00548 1.82746 0.961666C1.52398 1.47367 1.36447 2.05815 1.36579 2.65333C1.36637 3.20997 1.50565 3.75769 1.77103 4.24699C2.03642 4.7363 2.41955 5.15176 2.88579 5.45583C2.3437 5.43833 1.81331 5.2936 1.33746 5.03333V5.075C1.33746 6.70667 2.51663 8.0675 4.07913 8.3775C3.78547 8.45541 3.48294 8.49491 3.17913 8.495C2.95829 8.495 2.74413 8.47417 2.53496 8.4325C2.75836 9.10577 3.18588 9.69276 3.75814 10.1119C4.3304 10.5311 5.019 10.7617 5.72829 10.7717C4.51168 11.7088 3.01814 12.215 1.48246 12.2108C1.20579 12.2108 0.934126 12.1942 0.666626 12.1642C2.23434 13.1564 4.05212 13.6819 5.90746 13.6792C12.1966 13.6792 15.635 8.54833 15.635 4.09917L15.6233 3.66333C16.294 3.19139 16.8734 2.60154 17.3333 1.9225Z" fill="white"/>
</svg>
