<svg width="18" height="12" viewBox="0 0 18 12" fill="none" xmlns="http://www.w3.org/2000/svg">
<path d="M13.8433 0.180826H4.12079C2.21246 0.180826 0.666626 1.70999 0.666626 3.59666V8.40333C0.666626 10.29 2.21329 11.82 4.12079 11.82H13.8433C15.7516 11.82 17.2975 10.29 17.2975 8.40333V3.59666C17.2975 1.70999 15.7508 0.179993 13.8433 0.179993V0.180826ZM11.5075 6.23333L6.95996 8.37916C6.93222 8.39251 6.90156 8.39864 6.87082 8.39695C6.84008 8.39527 6.81027 8.38584 6.78415 8.36954C6.75804 8.35324 6.73647 8.3306 6.72146 8.30372C6.70645 8.27685 6.69848 8.24661 6.69829 8.21583V3.79166C6.69885 3.76072 6.70723 3.73043 6.72264 3.7036C6.73806 3.67677 6.76002 3.65428 6.78648 3.63822C6.81293 3.62217 6.84302 3.61307 6.87393 3.61178C6.90485 3.61048 6.93559 3.61704 6.96329 3.63083L11.5116 5.90999C11.5419 5.9251 11.5673 5.94845 11.585 5.97735C11.6026 6.00625 11.6117 6.03954 11.6113 6.07338C11.6108 6.10723 11.6009 6.14027 11.5825 6.16871C11.5641 6.19715 11.5381 6.21984 11.5075 6.23416V6.23333Z" fill="white"/>
</svg>
