<svg width="86" height="76" viewBox="0 0 86 76" fill="none" xmlns="http://www.w3.org/2000/svg">
<path d="M27.9186 9.99455C42.1714 -7.36665 59.9996 5.00027 59.9996 5.00027C59.9996 5.00027 91.1449 60.3336 65.4958 68.3336C39.8466 76.3336 27.9186 64.3336 27.9186 64.3336C27.9186 64.3336 13.6657 27.3557 27.9186 9.99455Z" fill="white"/>
<path d="M45.6749 63.2407C45.6888 63.4464 45.7011 63.6521 45.7119 63.8579C45.7158 63.9279 45.7202 63.9978 45.7249 64.0677C45.7317 64.1685 45.737 64.2692 45.7419 64.3699C45.7444 64.401 45.7468 64.4321 45.7493 64.4642C45.7577 64.6758 45.6999 64.7707 45.5033 64.9226C45.4667 65.0133 45.4667 65.0133 45.464 65.1013C45.4461 65.259 45.4461 65.259 45.3889 65.3011C45.2532 65.3044 45.1192 65.305 44.9836 65.3039C44.9199 65.3036 44.9199 65.3036 44.855 65.3033C44.7626 65.3028 44.6701 65.3023 44.5777 65.3017C44.4313 65.3007 44.2848 65.3002 44.1384 65.2997C43.722 65.2983 43.3055 65.2965 42.8891 65.2939C42.6346 65.2923 42.3801 65.2913 42.1256 65.2908C42.0287 65.2904 41.9317 65.2898 41.8348 65.289C41.6988 65.2879 41.5629 65.2876 41.4269 65.2874C41.3871 65.2869 41.3472 65.2864 41.3061 65.2859C41.0395 65.2867 40.8753 65.3392 40.6414 65.4272C40.5055 65.4141 40.5055 65.4141 40.4126 65.3852C40.3678 65.1045 40.3474 64.829 40.3498 64.5465C40.3499 64.5088 40.35 64.4712 40.35 64.4323C40.3504 64.3137 40.3511 64.195 40.3518 64.0764C40.3521 63.9953 40.3523 63.9141 40.3526 63.833C40.3532 63.6355 40.3542 63.4381 40.3554 63.2407C40.4641 63.241 40.4641 63.241 40.5749 63.2413C41.8511 63.2449 43.1254 63.2475 44.4007 63.2078C45.499 63.176 45.499 63.176 45.6749 63.2407Z" fill="#2E4432"/>
<path d="M50.3784 63.2775C50.4843 63.2773 50.4843 63.2773 50.5923 63.2771C50.6688 63.2772 50.7453 63.2773 50.8218 63.2774C50.9007 63.2773 50.9795 63.2773 51.0583 63.2772C51.2231 63.2772 51.3878 63.2773 51.5526 63.2775C51.764 63.2777 51.9754 63.2776 52.1868 63.2773C52.3493 63.2772 52.5119 63.2772 52.6745 63.2773C52.7524 63.2773 52.8304 63.2773 52.9084 63.2772C53.0171 63.2771 53.1258 63.2773 53.2345 63.2775C53.2964 63.2775 53.3583 63.2776 53.422 63.2776C53.5685 63.2829 53.5685 63.2829 53.6829 63.325C53.7753 63.7696 53.7491 64.235 53.7476 64.6837C53.7473 64.7934 53.7476 64.903 53.7479 65.0127C53.7479 65.0825 53.7478 65.1523 53.7477 65.2221C53.7478 65.2549 53.7479 65.2876 53.7481 65.3214C53.7467 65.5488 53.7467 65.5488 53.6829 65.5956C53.5106 65.5929 53.3401 65.5875 53.1681 65.5799C53.1209 65.578 53.0736 65.5762 53.0249 65.5743C52.8006 65.565 52.5783 65.5523 52.3552 65.5331C52.0812 65.5103 51.8077 65.4984 51.5323 65.489C51.4808 65.4872 51.4293 65.4854 51.3763 65.4836C51.2097 65.4778 51.0431 65.4723 50.8766 65.4669C50.8198 65.4649 50.763 65.463 50.7046 65.461C50.1152 65.441 49.527 65.4236 48.9369 65.4279C48.894 65.4282 48.8511 65.4285 48.8069 65.4288C48.6086 65.4304 48.4105 65.4333 48.2123 65.4379C48.1435 65.4389 48.0746 65.4399 48.0036 65.4409C47.9442 65.4423 47.8848 65.4437 47.8236 65.4452C47.628 65.4215 47.5909 65.3897 47.5054 65.2593C47.4861 65.1523 47.4761 65.055 47.4741 64.9478C47.4724 64.9024 47.4724 64.9024 47.4706 64.856C47.4683 64.7918 47.4664 64.7276 47.4649 64.6635C47.4625 64.5669 47.4589 64.4704 47.4551 64.3739C47.4429 64.0214 47.4513 63.676 47.5054 63.325C47.5715 63.3252 47.6375 63.3254 47.7056 63.3257C47.9513 63.3264 48.197 63.3269 48.4428 63.3273C48.549 63.3275 48.6553 63.3278 48.7615 63.3282C48.9144 63.3287 49.0673 63.3289 49.2202 63.3291C49.2676 63.3293 49.3149 63.3295 49.3636 63.3298C49.4083 63.3298 49.4529 63.3298 49.4989 63.3298C49.5574 63.3299 49.5574 63.3299 49.6171 63.33C49.7398 63.327 49.7398 63.327 49.8717 63.304C50.0436 63.2799 50.2034 63.2776 50.3784 63.2775Z" fill="#2E4432"/>
<path d="M39.8036 44.9616C40.0361 45.0077 40.2408 45.0921 40.4527 45.174C40.6973 45.2677 40.9331 45.3339 41.1988 45.3862C41.4977 45.4462 41.7841 45.5366 42.0708 45.6222C42.0991 45.7888 42.0991 45.7888 42.128 45.9586C42.4035 46.0643 42.6656 46.0539 42.9681 46.0506C43.0194 46.0503 43.0706 46.05 43.1235 46.0496C43.6167 46.0449 44.0558 46.0201 44.5304 45.9166C44.5347 45.9587 44.5347 45.9587 44.5391 46.0017C44.5527 46.1337 44.5665 46.2656 44.5804 46.3975C44.5855 46.4456 44.5906 46.4937 44.5958 46.5432C44.625 46.8112 44.6608 47.0772 44.7091 47.3436C44.7869 47.7875 44.7988 48.2398 44.7199 48.6839C44.6956 48.848 44.719 48.9673 44.7811 49.1253C44.9259 49.5655 44.9322 50.0177 44.963 50.4684C44.97 50.5646 44.9771 50.6609 44.9843 50.7571C44.9984 50.9478 45.0123 51.1386 45.0259 51.3293C45.051 51.6767 45.08 52.0239 45.1095 52.3711C45.1359 52.6848 45.1621 52.9983 45.1809 53.3123C45.1833 53.3486 45.1857 53.3849 45.1882 53.4224C45.1899 53.449 45.1915 53.4756 45.1933 53.503C45.2076 53.7069 45.2378 53.9067 45.2755 54.1091C45.3379 54.4724 45.3429 54.8307 45.3365 55.1964C45.3335 55.3773 45.3329 55.5582 45.3321 55.7392C45.3319 55.7743 45.3317 55.8094 45.3315 55.8456C45.3293 56.3565 45.3618 56.8623 45.4284 57.3709C45.538 58.2235 45.5826 59.0733 45.5993 59.9295C45.6009 60.0107 45.6009 60.0107 45.6025 60.0937C45.6093 60.4559 45.6138 60.8181 45.6172 61.1804C45.6177 61.2297 45.6182 61.2789 45.6188 61.3296C45.6202 61.4715 45.6211 61.6134 45.6219 61.7553C45.6225 61.8175 45.6225 61.8175 45.6231 61.8809C45.6237 62.1542 45.5997 62.4225 45.56 62.6942C45.2533 62.7685 44.9812 62.7922 44.6593 62.7957C44.6115 62.7965 44.5636 62.7973 44.5143 62.7982C44.3588 62.8007 44.2033 62.8027 44.0478 62.8046C43.9401 62.8061 43.8324 62.8077 43.7247 62.8093C43.0555 62.8187 42.3862 62.8245 41.7169 62.8256C41.6424 62.8258 41.5678 62.826 41.491 62.8262C41.3028 62.8259 41.115 62.8241 40.9268 62.8203C40.8848 62.8196 40.8427 62.8188 40.7993 62.818C40.5226 62.8024 40.4013 62.7306 40.2404 62.568C40.198 62.3924 40.2033 62.2184 40.206 62.0405C40.2056 61.9875 40.2052 61.9346 40.2048 61.88C40.204 61.7659 40.2037 61.6518 40.2042 61.5376C40.2054 61.2364 40.2012 60.9353 40.1973 60.6341C40.1968 60.5886 40.1968 60.5886 40.1963 60.5422C40.1891 59.9563 40.1494 59.3734 40.0939 58.7889C39.8975 56.6812 39.8975 56.6812 40.098 56.1398C40.1959 55.8273 40.1082 55.4903 40.0474 55.1779C39.9662 54.7333 39.9177 54.2894 39.8821 53.8417C39.8635 53.6107 39.8439 53.3807 39.8111 53.1506C39.7071 52.4043 39.7189 51.6623 39.7323 50.913C39.7352 50.7459 39.7368 50.5788 39.7384 50.4117C39.7396 50.3609 39.7409 50.31 39.7422 50.2576C39.7425 50.2103 39.7429 50.1629 39.7433 50.1141C39.744 50.0728 39.7448 50.0314 39.7455 49.9888C39.7342 49.8641 39.7342 49.8641 39.6402 49.7453C39.5411 49.5976 39.5318 49.4997 39.5302 49.3357C39.5293 49.2802 39.5283 49.2247 39.5273 49.1676C39.5272 49.1071 39.527 49.0466 39.5268 48.9862C39.526 48.9229 39.5251 48.8597 39.5241 48.7965C39.5223 48.6626 39.5209 48.5287 39.5199 48.3948C39.5184 48.1873 39.5159 47.9797 39.5131 47.7722C39.5126 47.738 39.5122 47.7039 39.5117 47.6687C39.5108 47.6001 39.5098 47.5315 39.5089 47.4629C39.5076 47.3608 39.5063 47.2587 39.5051 47.1566C39.498 46.574 39.4793 45.992 39.452 45.4098C39.4508 45.3805 39.4495 45.3513 39.4482 45.3211C39.4449 45.2457 39.4412 45.1703 39.4375 45.0949C39.4415 44.9032 39.5792 44.9397 39.8036 44.9616Z" fill="#2E4432"/>
<path d="M52.9393 44.5291C52.9342 44.6035 52.928 44.678 52.9214 44.7524C52.9181 44.7939 52.9148 44.8354 52.9114 44.8781C52.8876 45.0045 52.8536 45.1099 52.8043 45.2311C52.7208 45.4475 52.6706 45.6631 52.6267 45.8853C52.6198 45.9203 52.6128 45.9553 52.6057 45.9914C52.5771 46.1372 52.5491 46.2832 52.5218 46.4291C52.3834 47.1609 52.3834 47.1609 52.1938 47.4659C52.1149 47.5953 52.0647 47.7288 52.0114 47.8648C51.9622 47.989 51.9093 48.1122 51.8561 48.2355C51.6717 48.6706 51.4957 49.0914 51.4342 49.546C51.3068 50.4198 50.7431 51.5862 49.9017 52.217C49.7359 52.3564 49.6286 52.5144 49.5147 52.6787C49.4501 52.7707 49.4501 52.7707 49.3929 52.8127C49.3964 52.8866 49.4002 52.9605 49.4053 53.0343C49.4247 53.3552 49.3972 53.5564 49.1136 53.8171C49.022 53.9446 49.0711 53.9943 49.1641 54.1162C49.2409 54.1858 49.2409 54.1858 49.3286 54.2477C49.5524 54.4295 49.6395 54.642 49.7361 54.8731C49.8871 54.8593 50.0381 54.8454 50.1937 54.8311C50.1881 54.9105 50.1825 54.9899 50.177 55.0693C50.2126 55.278 50.3002 55.3926 50.5501 55.497C50.6251 55.5193 50.7006 55.5409 50.7764 55.5617C50.8591 55.5861 50.9417 55.6107 51.0242 55.6354C51.0666 55.6481 51.109 55.6607 51.1526 55.6737C51.3607 55.7394 51.5592 55.818 51.7596 55.8955C52.2317 56.0739 52.6342 56.1423 53.1681 56.1346C53.2639 56.1466 53.3596 56.1598 53.4541 56.1767C53.5 56.3266 53.5202 56.4677 53.5254 56.6213C53.5281 56.6919 53.5281 56.6919 53.5308 56.7639C53.5335 56.8413 53.5335 56.8413 53.5363 56.9204C53.551 57.2949 53.5685 57.6691 53.5955 58.0432C53.6649 59.0122 53.7031 59.9798 53.7205 60.9501C53.7215 60.998 53.7224 61.0458 53.7233 61.0951C53.725 61.1842 53.7265 61.2734 53.7278 61.3625C53.7327 61.6174 53.7527 61.8692 53.7847 62.1231C53.7999 62.2542 53.803 62.384 53.8008 62.5156C53.8003 62.5578 53.7998 62.6001 53.7993 62.6437C53.7986 62.6742 53.798 62.7048 53.7973 62.7363C53.6352 62.7436 53.4732 62.7505 53.3111 62.7573C53.2669 62.7593 53.2227 62.7614 53.1772 62.7634C52.8373 62.7774 52.4988 62.7792 52.1583 62.7782C51.7547 62.7775 51.3515 62.7848 50.9481 62.794C50.8251 62.7968 50.7022 62.7993 50.5793 62.8018C50.2235 62.8094 49.8718 62.8206 49.5184 62.8536C49.2474 62.8728 48.9749 62.8685 48.703 62.8677C48.614 62.868 48.614 62.868 48.5232 62.8682C47.6264 62.8674 47.6264 62.8674 47.4482 62.7363C47.4575 62.6296 47.4575 62.6296 47.4839 62.4998C47.5152 62.2818 47.4945 62.1559 47.3342 61.9717C47.0996 61.6608 47.2152 61.228 47.2766 60.894C47.325 60.6226 47.3419 60.3568 47.3391 60.0831C47.3389 60.0432 47.3387 60.0033 47.3385 59.9621C47.3354 59.5475 47.3227 59.1331 47.3093 58.7186C47.2874 58.0334 47.2705 57.3483 47.2694 56.6628C47.2693 56.632 47.2691 56.6012 47.269 56.5694C47.2678 56.2767 47.2735 55.988 47.3192 55.697C47.3517 55.453 47.3564 55.2075 47.3659 54.9625C47.3672 54.9325 47.3684 54.9026 47.3697 54.8717C47.3861 54.4703 47.3926 54.0694 47.3905 53.6678C47.3902 53.6058 47.3902 53.6058 47.3899 53.5425C47.3888 53.3385 47.3869 53.1345 47.3838 52.9305C47.3831 52.8549 47.3825 52.7793 47.3818 52.7037C47.381 52.6699 47.3803 52.6361 47.3795 52.6013C47.3782 52.3894 47.4151 52.1964 47.4765 51.9895C47.5195 51.8376 47.5426 51.6852 47.5646 51.5311C47.5693 51.4988 47.5741 51.4665 47.579 51.4333C47.5942 51.3299 47.6088 51.2264 47.6233 51.1229C47.6283 51.0873 47.6333 51.0518 47.6385 51.0151C47.7496 50.2188 47.8323 49.4478 47.7156 48.6488C47.6838 48.4272 47.6846 48.2403 47.7342 48.0191C47.7429 47.8728 47.7423 47.7267 47.7413 47.5802C47.7412 47.5399 47.7411 47.4995 47.741 47.4579C47.7381 47.1111 47.7147 46.7669 47.677 46.4213C48.0973 46.2346 48.4802 46.1315 48.9639 46.0717C49.702 45.9774 50.3418 45.7728 50.9824 45.4921C51.6488 45.2018 51.6488 45.2018 51.8525 45.2018C51.8525 45.1741 51.8525 45.1463 51.8525 45.1177C51.9365 45.0555 51.9365 45.0555 52.0527 44.9837C52.1823 44.9032 52.311 44.8228 52.4363 44.7386C52.4761 44.712 52.5158 44.6853 52.5568 44.6578C52.5931 44.6332 52.6295 44.6085 52.6669 44.5831C52.7677 44.5291 52.7677 44.5291 52.9393 44.5291Z" fill="#2E4432"/>
<path d="M19.7272 23.3923C23.0875 11.2449 33.2939 0.994861 45.8863 0.463777C58.4787 -0.0673073 69.0832 10.2655 71.3419 22.665C73.3381 33.6235 76.0786 44.5104 77.4563 55.7615C78.5164 64.419 73.9848 70.5977 65.3282 71.6649C59.9207 72.3316 53.2392 72.9991 46.0904 73.6035C23.575 75.5072 9.53333 54.4111 16.7593 33.002C17.8413 29.7962 18.8456 26.5792 19.7272 23.3923ZM43.5595 1.02693C43.3362 1.12483 43.1384 1.16091 42.896 1.18594C42.5404 1.22848 42.3243 1.34102 42.0499 1.56359C41.8876 1.67165 41.8509 1.68288 41.6675 1.68595C41.6025 1.68795 41.6025 1.68795 41.5362 1.68999C41.446 1.69184 41.3557 1.6935 41.2654 1.69496C40.9906 1.70379 40.7251 1.71442 40.5292 1.88958C40.4466 1.96343 40.3975 2.0659 40.3511 2.1665C40.1512 2.51031 39.9044 2.5804 39.5399 2.67665C39.3968 2.71508 39.2788 2.75376 39.1455 2.81289C39.0074 2.87282 38.8979 2.91003 38.7519 2.93504C38.5322 2.98628 38.4266 3.08574 38.2807 3.25969C38.2455 3.29918 38.2103 3.33867 38.174 3.37936C38.0556 3.54235 38.0109 3.67875 37.9589 3.87254C37.9219 4.0099 37.8842 4.11755 37.8287 4.22243C37.7537 4.36406 37.6672 4.50433 37.657 4.66427C37.6529 4.70417 37.6488 4.74407 37.6445 4.78518C37.6387 4.9007 37.6387 4.9007 37.6688 5.00113C37.7316 5.25619 37.733 5.5277 37.6936 5.79109C37.6494 6.08649 37.5727 6.37748 37.5558 6.67569C37.5375 6.81089 37.5375 6.81089 37.484 6.90593C37.4013 7.08975 37.4156 7.28176 37.4114 7.48006C37.4028 7.66354 37.3912 7.84673 37.3783 8.02996C37.3752 8.07404 37.3722 8.11812 37.3691 8.16353C37.331 8.6002 37.2913 8.96072 36.8769 9.17909C36.7273 9.24572 36.5752 9.30427 36.422 9.36218C36.263 9.43131 36.1363 9.53232 36.0013 9.63993C35.7895 9.80252 35.6342 9.87109 35.3734 9.91447C34.7887 10.0308 34.4552 10.4642 34.0869 10.8921C33.8254 11.1894 33.5689 11.4706 33.2605 11.7203C33.1898 11.774 33.1754 11.785 33.1788 11.8433C33.1806 11.8731 33.1586 11.8992 33.1287 11.8992C33.1011 11.8992 33.0783 11.9216 33.0783 11.9492C33.0783 11.9538 33.0783 11.9584 33.0783 11.9631C33.0783 11.9886 33.063 12.0117 33.0395 12.0218C33.0217 12.0294 33.0037 12.0371 32.9854 12.0449C32.857 12.1161 32.7682 12.1952 32.6728 12.3015C32.6603 12.3154 32.6536 12.3335 32.6536 12.3522C32.6536 12.3526 32.6536 12.3531 32.6536 12.3535C32.6536 12.3953 32.6201 12.4292 32.5783 12.4292C32.5587 12.4292 32.5395 12.4368 32.5254 12.4504C32.4632 12.5105 32.4557 12.5196 32.3782 12.6147C32.1758 12.8532 32.1758 12.8532 32.0896 12.9466C31.8642 13.1935 31.6919 13.441 31.5387 13.7377C31.5162 13.7812 31.4937 13.8248 31.4705 13.8696C30.7738 15.2599 30.5136 16.7919 30.5352 18.33C30.5418 18.8392 30.5251 19.3339 30.4625 19.8396C30.4258 20.1367 30.4089 20.428 30.414 20.7275C30.4145 20.7741 30.415 20.8207 30.4155 20.8686C30.4174 21.006 30.4205 21.1434 30.4239 21.2807C30.4247 21.3192 30.4254 21.3576 30.4262 21.3972C30.4545 22.6302 30.7665 23.7586 31.1612 24.9164C31.2307 25.129 31.2894 25.3434 31.3466 25.5595C31.5817 26.4201 32.0904 27.2743 32.6536 27.9591C32.6909 28.0084 32.7283 28.0578 32.7668 28.1086C32.8181 28.1863 32.8386 28.2172 32.8729 28.2265C32.9297 28.2419 32.987 28.2622 33.0086 28.3169C33.0737 28.4462 33.0738 28.4462 33.211 28.5355C33.3022 28.6129 33.3557 28.6733 33.3911 28.7484C33.454 28.882 33.4271 29.0301 33.3582 29.1607C33.3182 29.2365 33.2775 29.3271 33.2754 29.4128C33.274 29.4698 33.2847 29.5125 33.3147 29.5594C33.3641 29.6362 33.44 29.6912 33.5137 29.7451C33.5255 29.7537 33.5374 29.7624 33.5494 29.7712C33.5974 29.8069 33.6455 29.8426 33.695 29.8794C33.7792 29.9419 33.8683 30.0061 33.9101 30.1023C33.9336 30.1562 33.9449 30.2133 33.9501 30.2728C33.9689 30.4903 33.9372 30.7368 34.0911 30.8916C34.181 30.9819 34.3067 31.0359 34.4585 31.0962C34.7229 31.2211 34.7953 31.3393 34.8911 31.6085C34.8958 31.6204 34.9008 31.6321 34.9059 31.6435C35.0706 32.0084 35.5095 32.1753 35.6297 32.5571C35.6431 32.5971 35.6565 32.6372 35.6704 32.6784C35.7554 32.9371 35.8274 33.1978 35.8952 33.4615C35.9382 33.6296 35.9692 33.751 35.9983 33.8502C36.1552 34.3847 36.5306 34.8244 36.805 35.3093C36.9097 35.4909 37.0129 35.6588 37.1514 35.8168C37.3878 36.1023 37.4443 36.5182 37.7592 36.7136C37.891 36.7953 38.0351 36.8618 38.1679 36.9266C38.2034 36.9447 38.239 36.9629 38.2756 36.9815C38.4723 37.079 38.6624 37.1454 38.868 37.1979C38.8926 37.2042 38.8893 37.2421 38.864 37.2435C38.6688 37.2545 38.4736 37.2657 38.2784 37.277C38.1938 37.2819 38.1092 37.2867 38.0246 37.2914C37.9032 37.2981 37.7819 37.3052 37.6605 37.3123C37.6034 37.3154 37.6034 37.3154 37.5452 37.3185C37.3339 37.3141 37.2146 37.5242 37.215 37.7356C37.2151 37.7729 37.2153 37.8101 37.2157 37.8475C37.2159 37.8902 37.2162 37.933 37.2164 37.977C37.2169 38.0517 37.2175 38.1264 37.2181 38.201C37.2186 38.2572 37.2543 38.3068 37.3074 38.3249C37.3178 38.3284 37.328 38.3333 37.3371 38.3395C37.4762 38.4351 37.4577 38.5051 37.4612 38.679C37.4734 38.928 37.5063 39.1553 37.5641 39.3978C37.6207 39.6468 37.6551 39.8817 37.6669 40.1366C37.6889 40.5684 37.7567 40.9897 37.8253 41.4163C37.8782 41.7469 37.9264 42.0771 37.9662 42.4095C38.0216 42.867 38.0951 43.3133 38.1955 43.7631C38.3255 44.3671 38.4149 44.9713 38.487 45.5846C38.5064 45.7487 38.5269 45.9127 38.5474 46.0766C38.6166 46.6418 38.6645 47.2022 38.6849 47.7711C38.7045 48.2766 38.7601 48.7769 38.8199 49.279C38.8385 49.4352 38.8565 49.5914 38.8744 49.7477C38.8861 49.848 38.8978 49.9483 38.9095 50.0486C38.9175 50.1179 38.9175 50.118 38.9257 50.1887C38.9309 50.2317 38.936 50.2746 38.9413 50.3188C38.9458 50.3562 38.9502 50.3937 38.9548 50.4322C38.9691 50.5392 38.9691 50.5392 38.9986 50.645C39.0437 50.8325 39.0357 51.0262 39.0389 51.2181C39.0404 51.2866 39.0403 51.2866 39.0418 51.3564C39.045 51.5022 39.0478 51.6481 39.0505 51.7939C39.0532 51.9388 39.0561 52.0837 39.0592 52.2286C39.0611 52.3186 39.0628 52.4087 39.0643 52.4987C39.0696 52.7465 39.088 52.9888 39.1176 53.2349C39.1363 53.4032 39.1428 53.5714 39.1492 53.7406C39.1525 53.8183 39.1557 53.896 39.1591 53.9738C39.1608 54.0151 39.1626 54.0563 39.1643 54.0989C39.215 55.2733 39.3094 56.4439 39.4081 57.6151C39.6412 60.4094 39.6412 60.4094 39.5268 61.0245C39.5023 61.1881 39.5034 61.3239 39.5179 61.4881C39.5249 61.5738 39.5249 61.5738 39.5321 61.6613C39.5374 61.7229 39.5427 61.7845 39.5482 61.8479C39.5922 62.3994 39.6186 62.9478 39.6311 63.501C39.6478 64.197 39.6976 64.8867 39.7663 65.5794C39.7744 65.6631 39.7816 65.7465 39.7878 65.8299C39.8441 66.5811 39.3527 67.2512 38.6026 67.3205C38.5393 67.3269 38.4761 67.3334 38.4109 67.34C37.7104 67.4085 37.01 67.4462 36.3064 67.4576C36.2611 67.4583 36.2159 67.4591 36.1693 67.4599C35.9844 67.4629 35.7996 67.4658 35.6147 67.4677C35.477 67.4691 35.3393 67.4716 35.2015 67.4741C35.1605 67.4743 35.1195 67.4745 35.0773 67.4747C34.8201 67.4804 34.5066 67.4989 34.292 67.6504C34.1894 67.7228 34.135 67.8533 34.1591 67.9765C34.1882 68.1247 34.3185 68.2338 34.4688 68.2479C34.5806 68.2584 34.6961 68.2487 34.8106 68.2485C34.8577 68.2486 34.9049 68.2486 34.9534 68.2487C35.1092 68.2488 35.2649 68.2485 35.4207 68.2481C35.5005 68.248 35.5005 68.248 35.582 68.2479C36.4342 68.247 37.2856 68.2334 38.1374 68.2073C38.2184 68.2049 38.2995 68.2024 38.3805 68.2C38.4198 68.1988 38.4591 68.1976 38.4997 68.1964C38.7588 68.1892 39.0174 68.1886 39.2766 68.1907C39.7248 68.1941 40.1558 68.175 40.6 68.1089C41.2156 68.0267 41.8053 67.9944 42.4252 68.0549C42.7863 68.0889 43.1474 68.1019 43.5098 68.1123C43.5488 68.1134 43.5878 68.1146 43.628 68.1158C44.1702 68.1316 44.7118 68.1367 45.2542 68.1332C46.8614 68.1232 48.4631 68.1506 50.0693 68.2083C50.1442 68.211 50.1442 68.211 50.2207 68.2137C51.3248 68.2535 52.4288 68.2972 53.5327 68.3436C53.6423 68.3482 53.752 68.3528 53.8617 68.3574C53.9141 68.3596 53.9666 68.3618 54.0207 68.3641C55.036 68.4061 56.049 68.4282 57.0646 68.3823C57.8946 68.3449 58.7245 68.3298 59.5552 68.3193C59.683 68.3176 59.8109 68.3158 59.9387 68.3141C61.1599 68.2973 62.3809 68.2933 63.6023 68.2965C63.7451 68.2968 63.8879 68.2971 64.0307 68.2974C64.2093 68.2978 64.3879 68.2982 64.5665 68.2986C64.6018 68.2987 64.6372 68.2988 64.6736 68.2988C65.1346 68.2999 65.5955 68.3019 66.0564 68.3046C66.3245 68.306 66.5926 68.3068 66.8607 68.3074C66.9863 68.3079 67.112 68.3086 67.2376 68.3096C67.4111 68.3111 67.5846 68.3115 67.7582 68.3117C67.8083 68.3123 67.8585 68.313 67.9102 68.3136C68.0542 68.3148 68.1618 68.3156 68.2494 68.3116C68.7303 68.2899 69.0659 67.7206 68.7624 67.347C68.538 67.0901 68.2826 67.1215 67.9597 67.1264C67.9174 67.1268 67.875 67.1272 67.8314 67.1277C67.6908 67.1292 67.5501 67.131 67.4095 67.1329C67.3103 67.1341 67.2112 67.1352 67.112 67.1363C66.903 67.1388 66.6939 67.1414 66.4849 67.1441C66.2223 67.1476 65.9597 67.1506 65.6972 67.1536C64.7812 67.1639 63.8657 67.175 62.9503 67.2081C61.7223 67.2516 60.4931 67.2529 59.2645 67.2626C58.9267 67.2653 58.5889 67.2682 58.2511 67.2711C57.6676 67.2761 57.0842 67.2809 56.5008 67.2856C56.3674 67.2867 56.199 67.1972 56.2519 67.0748C56.2663 67.0414 56.2793 67.0038 56.2831 66.9677C56.2844 66.9555 56.2855 66.9445 56.2865 66.9344C56.3001 66.7887 56.2087 66.651 56.0706 66.6026C55.7265 66.4819 55.3055 66.5366 54.9568 66.5865C54.5656 66.6274 54.2002 66.3626 54.1975 65.9693C54.1967 65.8576 54.2012 65.7442 54.2034 65.6277C54.2096 65.2457 54.2075 64.867 54.1823 64.4857C54.1442 63.9017 54.134 63.3175 54.1238 62.7324C54.1227 62.6714 54.1215 62.6104 54.1204 62.5475C54.0889 60.7882 54.0941 59.0284 54.099 57.2688C54.0999 56.9295 54.3386 56.6258 54.6779 56.6205C54.7303 56.6192 54.7827 56.6178 54.8367 56.6164C55.4626 56.6818 56.1108 57.1762 56.5483 57.6044C56.6218 57.686 56.6361 57.7018 56.6994 57.6987C56.7291 57.6972 56.7549 57.7193 56.7549 57.7491C56.7549 57.7769 56.7774 57.7998 56.8052 57.7998C56.8061 57.7998 56.8071 57.7998 56.8081 57.7998C56.8373 57.7998 56.8611 57.8232 56.8611 57.8524C56.8611 57.8817 56.8848 57.9058 56.9141 57.9058C56.9176 57.9058 56.9211 57.9058 56.9246 57.9058C56.9504 57.9058 56.9736 57.9214 56.9834 57.9452C56.99 57.9612 56.9966 57.9773 57.0033 57.9936C57.0947 58.1556 57.2147 58.2792 57.3455 58.4094C57.3732 58.4372 57.4009 58.4649 57.4295 58.4935C57.6497 58.708 57.8856 58.8896 58.1351 59.0686C58.5443 59.3631 58.8695 59.6977 59.1969 60.079C59.2665 60.1574 59.3362 60.2358 59.4059 60.3142C59.5065 60.4288 59.5973 60.5421 59.6879 60.6653C59.8481 60.8604 60.0636 60.9775 60.2775 61.1067C60.3868 61.1731 60.488 61.2419 60.5904 61.3179C60.7382 61.4051 60.854 61.4406 61.0068 61.4525C61.073 61.4576 61.1542 61.4359 61.2101 61.4002C61.2997 61.3429 61.3202 61.2373 61.3009 61.1327C61.2532 60.8738 61.1275 60.7074 60.8973 60.5272C60.6252 60.3139 60.526 60.1455 60.4251 59.8171C60.3102 59.5083 60.118 59.2419 59.9401 58.9659C59.9163 58.9184 59.9524 58.8634 60.0051 58.8704C60.3439 58.9159 60.6369 59.0868 60.9183 59.2856C60.9468 59.3057 60.9765 59.3243 61.0084 59.3384C61.2058 59.4255 61.4046 59.4406 61.6223 59.4661C61.8452 59.4958 62.0091 59.5176 62.136 59.5386C62.6303 59.6204 63.0489 59.9468 63.55 59.9432C63.6022 59.9442 63.6545 59.9453 63.7084 59.9464C63.9152 59.9462 64.0496 59.9365 64.1857 59.8656C64.3387 59.7859 64.4932 59.6923 64.6648 59.7113C64.7347 59.714 64.7862 59.7154 64.8308 59.7116C65.0242 59.6951 65.1978 59.5247 65.2027 59.3306C65.2072 59.157 65.0843 59.0033 64.9519 58.8911C64.9143 58.8592 64.8758 58.8281 64.8361 58.7965C64.7214 58.7038 64.6233 58.6059 64.5221 58.4988C64.1626 58.1349 63.7402 57.8362 63.3144 57.5547C63.0984 57.4078 62.9575 57.2494 62.8151 57.0315C62.7862 56.9827 62.7724 56.9593 62.7499 56.9501C62.693 56.9267 62.6301 56.9137 62.6046 56.8578C62.54 56.7373 62.4702 56.6491 62.3787 56.5476C62.3462 56.5111 62.3137 56.4745 62.2802 56.4369C62.2013 56.3504 62.1214 56.2648 62.0409 56.1797C61.998 56.1339 61.9551 56.088 61.9109 56.0408C61.8705 55.9985 61.8302 55.9562 61.7886 55.9126C61.7069 55.8054 61.6722 55.7269 61.6521 55.6157C61.6417 55.5577 61.669 55.5006 61.718 55.468C61.7669 55.4355 61.7945 55.3781 61.7869 55.3199C61.7643 55.1488 61.73 54.9918 61.6689 54.8244C61.5813 54.5671 61.5338 54.3119 61.4926 54.0439C61.481 53.9713 61.481 53.9713 61.4691 53.8972C61.4446 53.7439 61.4206 53.5904 61.3966 53.437C61.3804 53.3348 61.3641 53.2325 61.3478 53.1303C61.3166 52.9346 61.2855 52.7389 61.2546 52.5431C61.2476 52.4989 61.2406 52.4546 61.2333 52.409C61.2171 52.306 61.2009 52.2028 61.1847 52.0997C61.1109 51.6402 61.0093 51.1876 60.9068 50.7338C60.736 49.9581 60.6692 49.2261 60.6784 48.4351C60.6811 48.1841 60.6817 47.9331 60.6825 47.6821C60.6826 47.632 60.6828 47.5819 60.683 47.5303C60.6994 46.111 60.6993 46.111 60.5043 44.711C60.4648 44.5193 60.4618 44.3433 60.4685 44.1487C60.4715 43.9917 60.4624 43.8377 60.451 43.6811C60.4455 43.6035 60.4455 43.6035 60.4398 43.5242C60.4013 43.277 60.2818 43.044 60.2979 42.7943C60.312 42.5749 60.3573 42.356 60.3946 42.1408C60.4563 41.7831 60.4922 41.45 60.422 41.1056C60.3927 40.9617 60.3597 40.8173 60.3633 40.6705C60.3641 40.627 60.3648 40.5835 60.3655 40.5387C60.3664 40.4924 60.3672 40.446 60.3681 40.3983C60.3718 39.9521 60.3404 39.5293 60.2586 39.0898C60.2521 39.0542 60.2455 39.0187 60.2388 38.982C60.2053 38.8003 60.171 38.6188 60.1356 38.4374C60.065 38.0567 60.0378 37.697 60.0396 37.3108C60.0397 37.2586 60.0397 37.2063 60.0398 37.1525C60.0412 36.8843 60.0498 36.6205 60.0761 36.3535C60.2071 34.7547 60.092 33.1166 58.7191 32.0934C58.4553 31.9123 58.1841 31.8232 57.8799 31.726C57.6062 31.6375 57.3395 31.5365 57.0734 31.4275C57.0366 31.4126 56.9998 31.3977 56.9619 31.3824C56.6452 31.2511 56.3561 31.0889 56.0714 30.8975C55.8488 30.7581 55.6256 30.6827 55.3746 30.6093C55.3059 30.5876 55.3059 30.5876 55.2357 30.5656C54.7828 30.4235 54.3266 30.2925 53.8705 30.1614C53.818 30.1462 53.7656 30.1311 53.7115 30.1155C53.6602 30.1007 53.6089 30.0859 53.5561 30.0707C53.4238 30.0303 53.2955 29.9841 53.1659 29.936C52.9089 29.8487 52.6673 29.8547 52.3985 29.8573C51.8308 29.8479 51.4477 29.6772 50.9684 29.3902C50.733 29.2547 50.5828 29.2144 50.3115 29.2279C50.0242 29.2347 49.8094 29.206 49.5351 29.1252C49.4489 29.1105 49.3626 29.0961 49.2763 29.0821C48.9303 29.0149 48.5815 28.8627 48.3078 28.6354C48.2776 28.6103 48.261 28.5732 48.261 28.5339C48.261 28.4756 48.2977 28.4228 48.3531 28.4048C48.6913 28.2949 49.0018 28.2518 49.3659 28.2573C49.4189 28.2578 49.4719 28.2584 49.5265 28.259C50.3782 28.2768 51.1636 28.4225 51.9728 28.6879C52.2547 28.7778 52.5043 28.8547 52.7706 28.745C52.8475 28.7133 52.9124 28.6593 52.9725 28.6018C53.0254 28.5517 53.0254 28.5517 53.0795 28.5005C53.1186 28.4618 53.1577 28.4231 53.1981 28.3831C53.2683 28.316 53.2683 28.316 53.3399 28.2475C53.616 27.9791 53.8697 27.703 54.1051 27.3978C54.2097 27.2663 54.3211 27.1445 54.4357 27.0216C54.5162 26.9328 54.5808 26.8493 54.6352 26.7609C54.7566 26.5635 54.7147 26.2973 54.5386 26.1466C54.4593 26.0786 54.3804 26.0414 54.2184 25.9725C54.1792 25.9558 54.1536 25.9179 54.1536 25.8752C54.1536 25.8239 54.1903 25.7791 54.2411 25.7714C54.4375 25.7417 54.6237 25.7337 54.8272 25.7396C55.2994 25.742 55.8224 25.6811 56.1384 25.2976C56.1602 25.2711 56.1709 25.2379 56.1709 25.2037C56.1709 25.1393 56.1323 25.0807 56.073 25.0558C56.0429 25.0431 56.0126 25.0304 55.9818 25.0174C55.9467 25.0027 55.9116 24.9879 55.8754 24.9727C55.5258 24.8786 55.2544 24.9651 54.9333 25.097C54.7714 25.1617 54.6754 25.2001 54.6106 25.2228C54.5221 25.2539 54.457 25.1612 54.4919 25.0742C54.4957 25.0647 54.4995 25.0552 54.5033 25.0457C54.5166 25.0126 54.5482 24.9909 54.5838 24.9909C54.6133 24.9909 54.6411 24.9761 54.6572 24.9514C54.6984 24.8881 54.7396 24.8248 54.7805 24.7613C54.8157 24.7122 54.8511 24.6669 54.8882 24.6259C55.1171 24.3732 55.5021 24.3978 55.8292 24.494C56.2836 24.615 56.7482 24.5592 57.161 24.3416C57.2088 24.3164 57.2498 24.2798 57.2816 24.2362C57.3014 24.209 57.3165 24.187 57.3284 24.1667C57.4007 24.0432 57.2961 23.893 57.1589 23.8523C57.1026 23.8356 57.0474 23.821 56.9929 23.8085C56.7175 23.7449 56.5879 23.3129 56.8478 23.424C57.2923 23.613 57.8232 23.4481 58.2119 23.1828C58.2561 23.1526 58.3033 23.1032 58.3228 23.0533C58.3806 22.905 58.2008 22.791 58.0439 22.7642C57.7235 22.7094 57.4336 22.7165 57.1053 22.7857C57.0349 22.8005 56.9672 22.7488 56.9672 22.6769C56.9672 22.634 56.9921 22.5942 57.0309 22.5761C57.0428 22.5706 57.0547 22.565 57.0668 22.5594C57.0879 22.5495 57.1054 22.5413 57.1203 22.5339C57.2491 22.4705 57.3563 22.3669 57.4958 22.3329C57.5374 22.3223 57.579 22.3116 57.6218 22.3006C57.709 22.279 57.7962 22.2576 57.8835 22.2364C58.5286 22.0697 58.8231 21.5248 59.0762 20.9431C59.0858 20.921 59.0943 20.8798 59.0971 20.8559C59.1119 20.7265 58.9903 20.6493 58.8625 20.6744C58.3429 20.7765 58.0247 21.0975 57.7612 21.5979C57.6183 21.8492 57.4398 22.0183 57.2214 22.1815C57.1606 22.227 57.0753 22.1815 57.0767 22.1056C57.0946 21.9349 56.9224 21.8606 56.7571 21.907C56.3977 22.0078 56.1474 22.2683 55.9463 22.6112C55.8397 22.8288 55.7924 23.0029 55.7861 23.2452C55.7672 23.5712 55.5705 23.7361 55.3236 23.9292C55.3223 23.9303 55.3207 23.9313 55.3192 23.9321C55.3175 23.9329 55.3158 23.9337 55.3142 23.9346C55.2903 23.9465 55.2668 23.9178 55.2832 23.8967C55.3123 23.8588 55.3413 23.8209 55.3713 23.7818C55.4003 23.7443 55.4292 23.7068 55.459 23.6681C55.6269 23.4254 55.6443 23.1225 55.5618 22.8489C55.5275 22.7353 55.4566 22.6206 55.3601 22.5518C55.2143 22.4477 55.0218 22.5407 54.8936 22.6659C54.6594 22.8946 54.5633 23.1956 54.5704 23.5539C54.5807 23.6989 54.6072 23.8381 54.635 23.9806C54.7101 24.3852 54.6734 24.6338 54.4024 24.9071C54.3748 24.935 54.3303 24.9094 54.3384 24.8711C54.4002 24.5456 54.3869 24.2883 54.2426 24.0209C54.1897 23.9229 54.0982 23.8255 53.9945 23.7851C53.8171 23.716 53.6709 23.9119 53.6119 24.0929C53.5148 24.3905 53.4952 24.7399 53.5875 25.0253C53.6043 25.077 53.6302 25.1252 53.6621 25.1691C53.6856 25.2014 53.7062 25.2249 53.7596 25.2841C53.7743 25.3004 53.7891 25.3328 53.7952 25.354C53.8216 25.4447 53.7444 25.5177 53.65 25.5144C53.6421 25.5141 53.6342 25.5138 53.6263 25.5135C52.5955 25.4883 51.6268 25.6522 50.6574 25.9254C50.1548 26.0671 49.6429 26.2031 49.122 26.1656C48.8535 26.1462 48.5826 26.1029 48.3555 26.0269C48.219 25.9813 48.0832 25.9304 47.9406 25.9106C47.8761 25.9012 47.8761 25.9012 47.8103 25.8916C47.7208 25.8788 47.6312 25.8663 47.5416 25.8539C47.2701 25.8138 47.0227 25.7528 46.7842 25.6594C46.4683 25.5356 46.291 25.1808 46.5722 24.9909C46.7978 24.837 46.7978 24.837 47.0112 24.6671C47.1672 24.5513 47.3058 24.5046 47.4913 24.4477C47.8312 24.3325 48.1097 24.178 48.4122 23.9829C48.7207 23.7894 49.0504 23.6359 49.3812 23.4845C49.6416 23.3621 49.8619 23.2473 50.0693 23.0464C50.4374 22.6988 50.8967 22.4724 51.34 22.2348C51.3781 22.2142 51.4162 22.1937 51.4555 22.1725C52.1335 21.8133 52.9788 21.4411 53.7588 21.5027C54.1385 21.5248 54.4273 21.3643 54.7635 21.2081C55.1294 21.0421 55.4911 20.9338 55.8823 20.8435C56.3251 20.7742 56.5184 20.7439 56.6969 20.6456C57.0674 20.4414 57.3058 20.0082 57.727 19.9689C58.1406 19.9212 58.4467 19.8612 58.7058 19.5051C58.7362 19.4641 58.7666 19.4231 58.7979 19.3809C58.8025 19.3743 58.8071 19.3679 58.8115 19.3615C59.0095 19.0788 58.7856 18.7215 58.4405 18.7277C58.358 18.7288 58.3581 18.7288 58.2739 18.7299C58.2142 18.7313 58.1545 18.7327 58.093 18.7341C58.03 18.7351 57.9669 18.7362 57.902 18.7372C57.7294 18.7402 57.5569 18.7437 57.3843 18.7475C57.2381 18.7506 57.0918 18.7533 56.9456 18.756C55.8964 18.7756 54.848 18.8096 53.7994 18.8496C52.4797 18.8995 51.1601 18.9172 49.8396 18.9305C49.4199 18.9347 49.0003 18.9402 48.5806 18.9469C48.4739 18.9486 48.3672 18.95 48.2605 18.9513C48.0626 18.9542 47.8648 18.9585 47.6669 18.9633C47.6093 18.964 47.5516 18.9646 47.4922 18.9653C47.1425 18.9757 46.8075 19.0189 46.5745 19.2704C46.5066 19.3438 46.4567 19.4455 46.4258 19.5406C46.3385 19.8099 46.4914 20.0825 46.7261 20.2406C47.4251 20.7114 48.5034 20.726 49.3 20.702C49.3706 20.6998 49.4289 20.7555 49.4289 20.8262C49.4289 20.8763 49.399 20.9224 49.3528 20.942C49.3479 20.944 49.343 20.9461 49.3381 20.9482C49.1917 21.0295 49.0906 21.1306 48.9711 21.2476C48.712 21.4829 48.4879 21.6054 48.1549 21.7048C48.0971 21.7237 48.0393 21.7427 47.9798 21.7623C47.5598 21.8892 47.1692 21.9371 46.7312 21.9506C46.4497 21.9604 46.1845 21.9934 45.9086 22.0493C45.5342 22.123 45.1535 22.1595 44.7708 22.1763C43.9183 22.2138 43.1315 21.444 43.6956 20.8037C43.7627 20.7204 43.8226 20.646 43.876 20.5783C44.538 19.7407 44.1611 18.478 43.4268 17.703C42.9855 17.1841 42.8413 16.3665 42.6903 15.7154C42.4813 14.8383 42.1144 14.0057 41.7118 13.2017C41.536 12.8492 41.4296 12.5599 41.4134 12.1925C41.4095 12.1022 41.5021 12.0429 41.5854 12.0781C41.6196 12.0925 41.6538 12.1069 41.6891 12.1218C41.8276 12.1834 41.9596 12.2692 42.1105 12.283C42.1141 12.2833 42.1177 12.2836 42.1213 12.2839C42.4048 12.3051 42.6635 12.1081 42.8017 11.8595C42.8065 11.8509 42.8114 11.8421 42.8163 11.8329C42.9215 11.6479 42.9273 11.6376 43.1163 11.6151C43.1396 11.6123 43.171 11.6136 43.1942 11.6167C43.281 11.6284 43.3711 11.5991 43.3873 11.5131C43.401 11.4399 43.3859 11.3592 43.3784 11.2787C43.3774 11.2685 43.3701 11.2514 43.3649 11.2426C43.3299 11.1832 43.389 11.1142 43.4447 11.1549C43.5463 11.2292 43.6114 11.3319 43.6956 11.4752C43.7325 11.538 43.8905 11.7356 44.0406 11.6607C44.3592 11.5017 44.2928 11.2168 44.6047 11.611C44.9166 12.0052 45.1668 11.4383 45.3637 11.129C45.4053 11.0591 45.4465 10.989 45.4873 10.9186C45.8042 10.3926 46.1667 9.91967 46.5772 9.4625C46.7904 9.21146 46.9817 8.93946 47.164 8.66538C47.3089 8.44934 47.4741 8.29755 47.6733 8.13079C47.7623 8.05091 47.8273 7.99256 47.8777 7.94234C48.065 7.75589 47.8554 7.51807 47.6745 7.71066C47.6451 7.74199 47.6046 7.77566 47.5646 7.79122C47.4696 7.8281 47.3675 7.84487 47.2638 7.84879C47.0119 7.85834 46.7736 7.73469 46.6315 7.52643C46.5689 7.43693 46.5619 7.42687 46.4413 7.43835C46.407 7.4416 46.3578 7.45321 46.3252 7.46408C46.1721 7.51508 46.0416 7.60843 45.8845 7.57123C45.7603 7.54181 45.6512 7.49375 45.5485 7.42152C45.4117 7.32538 45.2307 7.26937 45.0986 7.37187C45.0204 7.43253 44.9578 7.50564 44.91 7.5997C44.8802 7.65832 44.8119 7.69065 44.7511 7.66557C44.7028 7.64589 44.6545 7.62621 44.6047 7.60594C44.5566 7.58626 44.5086 7.56658 44.4591 7.54631C44.4366 7.53651 44.4183 7.52855 44.4026 7.52211C44.3092 7.48362 44.2177 7.42144 44.2065 7.32105C44.19 7.09927 43.9355 7.01158 43.7282 7.09206C43.6989 7.10342 43.6694 7.11667 43.6392 7.13223C43.578 7.16176 43.5286 7.17996 43.4793 7.18882C43.3449 7.21298 43.2182 7.13124 43.1217 7.03461C43.0449 6.95768 42.9515 6.89929 42.8482 6.86556C42.8431 6.86391 42.838 6.86225 42.8329 6.86058C42.6921 6.81265 42.6871 6.81096 42.6452 6.70978C42.6421 6.70218 42.6402 6.6942 42.6397 6.68599C42.6366 6.64001 42.6748 6.6018 42.7208 6.60508C42.7338 6.60601 42.7495 6.60713 42.7732 6.60882C42.9618 6.59836 43.0771 6.55653 43.2288 6.4657C43.2562 6.44932 43.2764 6.42333 43.2865 6.39307C43.2882 6.38815 43.2898 6.38323 43.2914 6.3783C43.3102 6.32227 43.2851 6.26098 43.2325 6.23407C43.0206 6.12173 42.8381 6.01604 42.667 5.8469C42.0418 5.28495 40.9601 5.81696 40.7358 6.62715C40.7303 6.64725 40.7248 6.66764 40.7194 6.68832C40.706 6.73738 40.6925 6.78644 40.6787 6.83698C40.5828 7.19392 40.5045 7.55317 40.4327 7.91556C40.3693 8.22841 40.2862 8.53237 40.1952 8.83826C40.033 9.38494 39.9117 9.93719 39.7952 10.4951C39.7583 10.6689 39.7183 10.8418 39.6776 11.0147C39.6543 11.1152 39.6311 11.2157 39.6079 11.3162C39.5924 11.382 39.5924 11.3819 39.5766 11.4491C39.5199 11.7061 39.493 11.9542 39.4785 12.2172C39.4616 12.5025 39.2394 12.483 39.2849 12.2008C39.337 11.878 39.4225 11.5552 39.4785 11.2746C39.5041 11.1454 39.5288 11.0161 39.5536 10.8867C39.7113 10.0709 39.7113 10.0709 39.8354 9.69169C39.8829 9.53576 39.9176 9.37832 39.953 9.21922C39.9973 9.02068 40.0457 8.83052 40.1156 8.6395C40.2047 8.38907 40.2366 8.13468 40.27 7.87178C40.298 7.71195 40.298 7.71195 40.3501 7.58896C40.4088 7.43493 40.4291 7.29816 40.4486 7.13471C40.5069 6.73291 40.6244 6.35914 40.7559 5.9761C40.7677 5.94127 40.7795 5.90644 40.7916 5.87056C40.9661 5.35577 41.1648 4.86274 41.4111 4.3779C41.5412 4.11412 41.6573 3.84359 41.7768 3.57489C41.9662 3.15122 42.1592 2.76171 42.4339 2.38597C42.5284 2.25659 42.5284 2.25659 42.5982 2.12592C42.8665 1.65151 43.324 1.3949 43.8665 1.37139C44.4398 1.37172 44.7904 1.53227 45.2351 1.88161C45.2456 1.88961 45.2559 1.89746 45.2661 1.90515C45.7346 2.25913 46.3688 2.34196 46.7201 2.81247C46.9025 3.03154 47.1146 3.17164 47.3619 3.30938C47.6841 3.5022 47.8191 3.6467 47.9027 4.01498C47.9602 4.25628 48.0319 4.37466 48.2113 4.54501C48.47 4.80431 48.4811 5.07111 48.5026 5.41915C48.5048 5.43528 48.507 5.45022 48.5093 5.46413C48.5456 5.68785 48.7292 5.86792 48.7307 6.09456C48.7314 6.20406 48.7207 6.31316 48.7046 6.42553C48.6934 6.50298 48.7095 6.5815 48.753 6.64658C48.7783 6.68457 48.7956 6.72831 48.8014 6.77362C48.8301 6.99534 48.8303 7.18728 48.6824 7.37074C48.5669 7.51576 48.5694 7.64975 48.5975 7.8048C48.6148 7.90003 48.5552 7.99184 48.4601 8.01009C48.2188 8.06902 47.9984 8.17538 47.7804 8.28976C47.6544 8.35589 47.5382 8.51141 47.6462 8.60411C47.6909 8.64254 47.7611 8.66893 47.8199 8.67375C48.0748 8.69468 48.108 8.68108 48.3336 8.5296C48.3545 8.51555 48.3672 8.49223 48.3672 8.46703C48.3672 8.42934 48.3949 8.39704 48.4322 8.39172C48.4473 8.38959 48.4624 8.38743 48.4777 8.38525C48.5495 8.37336 48.5495 8.37336 48.6227 8.36123C48.6248 8.3609 48.6269 8.36057 48.629 8.36025C48.7204 8.34602 48.8147 8.33165 48.8934 8.28298C48.9056 8.27546 48.9168 8.26751 48.9274 8.25898C49.0409 8.16729 49.0781 8.01024 49.0772 7.86433C49.0925 7.66121 49.1423 7.53075 49.2431 7.35418C49.3895 7.08578 49.4111 6.84735 49.4215 6.54484C49.4289 6.38687 49.4289 6.38687 49.4638 6.24173C49.4904 6.06706 49.3777 5.99906 49.2561 5.8928C49.2295 5.8695 49.2078 5.84106 49.192 5.80939C49.1535 5.73225 49.1217 5.65508 49.091 5.57509C49.0724 5.52657 49.0985 5.47257 49.1479 5.45663C49.1559 5.45406 49.1638 5.45031 49.1707 5.44555C49.2165 5.41403 49.2486 5.38459 49.271 5.35388C49.3877 5.19431 49.2716 4.96866 49.1363 4.82454C49.0906 4.77594 49.0429 4.72881 48.9943 4.68083C48.9629 4.64821 48.9315 4.61558 48.8992 4.58197C48.6592 4.33539 48.3864 4.11366 48.2957 3.78175C48.2952 3.77999 48.2947 3.77823 48.2942 3.77647C48.1549 3.32569 48.0302 3.05074 47.5676 2.89861C47.3382 2.81944 47.2693 2.75411 47.1761 2.5309C47.0177 2.15577 46.7025 1.88335 46.2995 1.79382C46.1006 1.76998 45.8788 1.75096 45.7574 1.59166C45.7166 1.53818 45.6808 1.4757 45.6366 1.40665C45.358 1.04366 44.9074 1.00224 44.4805 0.98801C44.2715 0.977474 44.066 0.898772 43.8595 0.932547C43.7617 0.948532 43.667 0.979483 43.5595 1.02693Z" fill="url(#paint0_linear_6452_49)"/>
<path d="M43.9697 8.72705C44.0289 8.73277 44.3742 8.85994 44.46 8.88069C44.4314 8.9637 44.0485 8.80061 43.9912 8.80857C43.9877 8.79512 43.9751 8.74743 43.9697 8.72705Z" fill="url(#paint1_linear_6452_49)"/>
<path d="M44.4 8.8664C44.8447 8.97607 45.2156 9.07362 45.544 9.32294C45.5726 9.34369 45.6157 9.44745 45.544 9.40594C45.4722 9.36444 45.4582 9.30218 45.3438 9.26068C45.1722 9.19843 45.1038 9.18526 44.9505 9.20621C44.901 9.21734 44.8514 9.22847 44.8004 9.23993C44.4129 9.2493 44.4129 9.2493 44.3428 9.19843C44.3529 9.08675 44.3781 8.97728 44.4 8.8664Z" fill="url(#paint2_linear_6452_49)"/>
<path d="M43.9697 8.38916C44.1983 8.3978 44.4173 8.42813 44.6414 8.46067C44.7135 8.4709 44.7857 8.48113 44.86 8.49167C45.0317 8.5252 45.0317 8.5252 45.0744 8.60219C45.1094 8.59192 45.1444 8.58166 45.1805 8.57108C45.4134 8.65766 45.4134 8.65766 45.4675 8.75538C45.5025 8.74511 45.5375 8.73484 45.5736 8.72426C45.6438 8.77752 45.714 8.83077 45.7863 8.88563C45.5845 8.85531 45.5845 8.85531 45.5419 8.77832C45.5069 8.78859 45.4718 8.79885 45.4358 8.80943C45.3558 8.78162 45.2777 8.75091 45.2007 8.71896C44.9292 8.61455 44.6686 8.5658 44.3677 8.52487C44.2113 8.49595 44.1024 8.45469 43.9697 8.38916Z" fill="#2E4432"/>
<path d="M26.6111 64C26.7055 64.0137 26.7998 64.0274 26.8971 64.0415C26.916 64.11 26.9348 64.1785 26.9543 64.249C26.841 64.2901 26.841 64.2901 26.7255 64.332C26.5804 64.252 26.55 64.2319 26.5718 64.096C26.5847 64.0643 26.5977 64.0326 26.6111 64Z" fill="#2E4432"/>
<defs>
<linearGradient id="paint0_linear_6452_49" x1="39.3598" y1="-17.8063" x2="31.1415" y2="284.629" gradientUnits="userSpaceOnUse">
<stop stop-color="#2E4432"/>
</linearGradient>
<linearGradient id="paint1_linear_6452_49" x1="44.1866" y1="8.69691" x2="44.2192" y2="8.93152" gradientUnits="userSpaceOnUse">
<stop stop-color="#243527"/>
<stop offset="1" stop-color="#699B72"/>
</linearGradient>
<linearGradient id="paint2_linear_6452_49" x1="45.506" y1="8.66675" x2="45.506" y2="9.21599" gradientUnits="userSpaceOnUse">
<stop stop-color="#243527"/>
<stop offset="1" stop-color="#699B72"/>
</linearGradient>
</defs>
</svg>
