<svg width="31" height="34" viewBox="0 0 31 34" fill="none" xmlns="http://www.w3.org/2000/svg">
<path d="M16.4256 32.2448L16.4085 32.248L16.2979 32.3025L16.2667 32.3087L16.2449 32.3025L16.1343 32.248C16.1177 32.2428 16.1052 32.2454 16.0969 32.2557L16.0907 32.2713L16.0642 32.9382L16.072 32.9693L16.0875 32.9896L16.2496 33.1049L16.2729 33.1111L16.2916 33.1049L16.4537 32.9896L16.4724 32.9647L16.4786 32.9382L16.4521 32.2729C16.448 32.2563 16.4391 32.2469 16.4256 32.2448ZM16.8385 32.0688L16.8183 32.0719L16.53 32.2168L16.5145 32.2324L16.5098 32.2495L16.5378 32.9195L16.5456 32.9382L16.5581 32.9491L16.8713 33.094C16.891 33.0992 16.906 33.095 16.9164 33.0815L16.9227 33.0597L16.8697 32.1031C16.8645 32.0844 16.8541 32.0729 16.8385 32.0688ZM15.7245 32.0719C15.7176 32.0677 15.7094 32.0664 15.7016 32.0681C15.6938 32.0699 15.6869 32.0746 15.6824 32.0812L15.6731 32.1031L15.6201 33.0597C15.6212 33.0784 15.63 33.0909 15.6466 33.0971L15.67 33.094L15.9831 32.9491L15.9987 32.9366L16.005 32.9195L16.0314 32.2495L16.0268 32.2308L16.0112 32.2152L15.7245 32.0719Z" fill="white"/>
<path d="M13.1084 1.12092C13.3872 0.786409 13.7331 0.514053 14.1236 0.321424C14.5142 0.128794 14.9408 0.0201676 15.3759 0.00255087C15.8111 -0.0150658 16.2451 0.0587182 16.6499 0.219144C17.0548 0.37957 17.4215 0.623076 17.7265 0.933955L17.8948 1.12092L24.0227 8.47192H28.6735C29.0005 8.47122 29.3239 8.53961 29.6227 8.67259C29.9214 8.80557 30.1886 9.00016 30.4069 9.2436C30.6252 9.48704 30.7896 9.77384 30.8893 10.0852C30.9891 10.3966 31.0219 10.7256 30.9857 11.0505L30.8424 12.244L30.6866 13.397L30.5588 14.2602L30.4108 15.1872L30.2425 16.161L30.0524 17.1706L29.8405 18.2005C29.7284 18.7199 29.6079 19.2387 29.4791 19.757C29.1342 21.1251 28.7012 22.4694 28.1827 23.7816L27.8384 24.6229L27.505 25.3833L27.1903 26.0595L27.0438 26.3617L26.6558 27.1252C26.1572 28.0756 25.2162 28.6365 24.2206 28.7175L23.9713 28.7269H7.01786C6.47316 28.731 5.93758 28.587 5.46833 28.3104C4.99907 28.0338 4.61376 27.6349 4.35356 27.1563L3.99208 26.4552L3.71163 25.8787L3.56361 25.5593L3.252 24.8597C2.54042 23.2074 1.96311 21.5005 1.52565 19.7555C1.44107 19.4167 1.36004 19.077 1.28259 18.7365L1.06135 17.7269L0.863471 16.7391L0.688967 15.784L0.533159 14.8694L0.397607 14.0062L0.28231 13.2069L0.142083 12.1427L0.0392497 11.2765L0.0127625 11.0381C-0.0194671 10.732 0.00949467 10.4225 0.097963 10.1277C0.186431 9.8329 0.33264 9.55863 0.528083 9.32085C0.723526 9.08307 0.964301 8.88653 1.2364 8.74266C1.5085 8.59879 1.8065 8.51047 2.11305 8.48282L2.32494 8.47192H6.98203L13.1084 1.12092ZM27.7839 11.5881H3.21305L3.30965 12.3422L3.42806 13.196L3.5714 14.1371L3.73968 15.1467C3.802 15.4926 3.86744 15.8468 3.93599 16.2093L4.1588 17.3109C4.27721 17.8687 4.40809 18.4358 4.54832 18.9998C4.94372 20.5747 5.46475 22.1154 6.10639 23.6071L6.41177 24.2942L6.69534 24.8925L6.94931 25.3957L7.06149 25.6107H23.9308L24.1707 25.1386L24.4465 24.5699L24.7487 23.9109C25.3206 22.6255 25.975 20.9225 26.4548 18.9998C26.6496 18.2208 26.8225 17.4293 26.9768 16.6518L27.1949 15.5019L27.3819 14.3973L27.4645 13.8691L27.6125 12.8766L27.7325 11.9885L27.7839 11.5881ZM12.3636 16.0068L13.1427 20.681C13.197 21.0824 13.093 21.4893 12.8525 21.8152C12.6119 22.1412 12.2539 22.3607 11.8543 22.4272C11.4547 22.4936 11.0449 22.4018 10.7119 22.1713C10.3788 21.9407 10.1486 21.5895 10.0701 21.192L9.29109 16.5178C9.25069 16.3132 9.25178 16.1026 9.29429 15.8984C9.3368 15.6942 9.41988 15.5006 9.53858 15.3292C9.65729 15.1577 9.80922 15.0118 9.98536 14.9001C10.1615 14.7884 10.3583 14.7132 10.564 14.679C10.7697 14.6448 10.9803 14.6522 11.1831 14.7009C11.3859 14.7495 11.5769 14.8384 11.7447 14.9622C11.9125 15.086 12.0538 15.2423 12.1601 15.4217C12.2664 15.6011 12.3356 15.8001 12.3636 16.0068ZM20.2506 14.7042L20.4313 14.7245C20.8084 14.7867 21.1495 14.9854 21.3897 15.2827C21.6299 15.5801 21.7524 15.9553 21.7339 16.3371L21.7136 16.5178L20.9346 21.192C20.8685 21.5833 20.6556 21.9346 20.3394 22.1743C20.0231 22.414 19.6274 22.5239 19.2328 22.4818C18.8382 22.4397 18.4746 22.2486 18.2161 21.9475C17.9577 21.6465 17.8238 21.2581 17.8418 20.8617L17.8621 20.681L18.6411 16.0068C18.7033 15.6302 18.9015 15.2896 19.1982 15.0495C19.4949 14.8094 19.8693 14.6865 20.2506 14.7042ZM15.5016 3.11526L11.0377 8.47192H19.9655L15.5016 3.11526Z" fill="white"/>
</svg>
